<?xml version="1.0" standalone="no"?>
<!DOCTYPE svg PUBLIC "-//W3C//DTD SVG 20010904//EN" "http://www.w3.org/TR/2001/REC-SVG-20010904/DTD/svg10.dtd">
<svg
  version="1.0"
  xmlns="http://www.w3.org/2000/svg"
  width="26px"
  height="26px"
  viewBox="0 0 1024.000000 1024.000000"
  preserveAspectRatio="xMidYMid meet"
>
  <g
    transform="translate(0.000000,1024.000000) scale(0.100000,-0.100000)"
    fill="#000000"
    stroke="none"
  >
    <path
      d="M4950 9970 c-8 -5 -27 -10 -42 -10 -15 0 -30 -4 -33 -10 -3 -5 -17
-10 -31 -10 -13 0 -32 -4 -42 -9 -9 -5 -28 -13 -42 -19 -67 -27 -145 -70 -172
-94 -17 -16 -35 -28 -42 -28 -24 0 -186 -170 -239 -252 -64 -98 -118 -210
-141 -293 -10 -33 -21 -73 -26 -90 -16 -54 -32 -288 -25 -376 7 -90 -2 -129
-30 -129 -9 0 -23 -4 -33 -9 -9 -5 -37 -18 -62 -29 -25 -11 -71 -32 -103 -46
-32 -14 -61 -26 -66 -26 -11 0 -153 -73 -188 -97 -16 -10 -41 -25 -58 -33 -16
-8 -60 -34 -98 -57 -37 -24 -70 -43 -73 -43 -3 0 -11 -6 -19 -12 -7 -7 -48
-38 -90 -68 -126 -90 -362 -290 -477 -404 -107 -105 -305 -333 -328 -376 -7
-12 -23 -35 -37 -51 -14 -16 -31 -38 -37 -49 -27 -49 -92 -148 -118 -180 -15
-19 -28 -38 -28 -43 0 -4 -17 -31 -38 -60 -21 -29 -41 -59 -45 -67 -4 -8 -18
-33 -31 -55 -34 -55 -83 -155 -197 -400 -13 -27 -23 -53 -23 -57 -1 -3 -4 -10
-8 -14 -5 -4 -8 -14 -8 -21 0 -8 -9 -32 -20 -55 -11 -23 -23 -56 -26 -75 -3
-18 -10 -36 -15 -39 -5 -3 -9 -16 -9 -28 0 -13 -7 -37 -15 -52 -8 -16 -15 -39
-15 -51 0 -12 -4 -25 -10 -28 -5 -3 -10 -22 -10 -41 0 -19 -4 -34 -8 -34 -5 0
-13 -26 -19 -57 -18 -93 -24 -117 -33 -138 -9 -20 -26 -106 -36 -175 -3 -19
-9 -44 -14 -55 -13 -32 -40 -227 -40 -291 0 -33 -5 -77 -10 -99 -5 -23 -10
-438 -10 -1004 -1 -677 -4 -969 -12 -978 -6 -8 -33 -13 -67 -14 -55 0 -257
-22 -296 -32 -33 -8 -95 -40 -95 -49 0 -4 -6 -8 -14 -8 -22 0 -130 -128 -152
-180 -29 -70 -36 -91 -40 -120 -1 -13 -8 -26 -13 -28 -14 -5 -15 -222 -1 -222
6 0 10 -9 10 -20 0 -10 5 -32 11 -47 68 -169 162 -264 319 -323 35 -14 385
-17 1808 -20 272 -1 500 -4 508 -7 11 -4 14 -44 14 -213 0 -141 4 -211 11
-216 6 -3 9 -22 6 -43 -6 -51 9 -152 39 -251 24 -81 110 -304 124 -325 4 -5
24 -41 45 -80 70 -131 141 -228 280 -380 29 -32 199 -165 211 -165 3 0 24 -13
47 -29 38 -25 167 -91 225 -112 35 -14 65 -26 95 -38 15 -6 41 -11 57 -11 17
0 30 -4 30 -10 0 -5 22 -10 49 -10 30 0 51 -5 53 -12 6 -17 473 -17 490 0 7 7
23 12 37 12 21 0 103 24 166 49 11 5 38 14 60 21 177 56 410 211 563 375 171
183 360 540 378 715 3 30 9 64 14 75 18 41 38 290 39 500 1 72 6 137 11 145 8
13 149 15 1152 18 770 2 1153 6 1173 13 133 47 221 125 284 252 23 45 41 92
41 104 0 12 5 25 10 28 6 3 10 48 10 101 0 56 -4 94 -10 94 -5 0 -10 14 -10
30 0 41 -38 155 -56 171 -8 6 -14 17 -14 24 0 22 -107 130 -162 162 -63 38
-134 53 -303 62 l-120 6 -6 950 c-3 523 -9 968 -12 990 -3 22 -8 92 -12 155
-4 63 -10 120 -15 125 -4 6 -10 33 -13 60 -14 121 -29 209 -37 226 -6 10 -10
33 -10 53 0 19 -4 38 -10 41 -5 3 -10 17 -10 30 0 13 -4 26 -8 29 -5 3 -7 18
-4 34 2 16 -1 33 -7 36 -6 4 -11 16 -11 27 0 10 -4 27 -9 37 -12 23 -41 121
-41 138 0 8 -4 22 -9 32 -5 9 -22 58 -37 107 -15 50 -31 95 -35 100 -4 6 -10
25 -14 43 -4 19 -20 58 -36 88 -15 30 -27 55 -26 57 1 2 -74 152 -118 236 -13
23 -28 48 -34 54 -6 6 -11 19 -11 28 0 9 -7 23 -16 30 -9 7 -20 22 -25 34 -5
11 -15 29 -21 40 -7 11 -29 44 -48 75 -70 112 -107 166 -140 206 -31 37 -91
120 -107 147 -32 55 -274 328 -413 467 -61 61 -227 200 -239 200 -5 0 -11 3
-13 8 -1 4 -39 34 -83 66 -44 33 -103 77 -130 97 -28 21 -61 44 -75 51 -14 7
-45 27 -70 44 -25 17 -60 37 -77 45 -18 8 -33 17 -33 20 0 7 -202 109 -215
109 -4 0 -23 7 -43 16 -21 9 -46 19 -57 24 -11 4 -40 17 -63 29 -24 11 -52 21
-63 21 -10 0 -19 5 -19 10 0 6 -7 10 -16 10 -13 0 -15 7 -11 38 16 100 5 416
-14 428 -5 3 -9 18 -9 34 0 16 -4 31 -9 34 -4 3 -11 19 -14 35 -9 45 -83 199
-125 260 -20 29 -41 61 -47 70 -38 63 -96 118 -255 244 -8 7 -42 26 -75 42
-33 17 -61 33 -63 38 -2 4 -12 7 -22 7 -10 0 -22 5 -25 10 -3 6 -15 10 -26 10
-10 0 -19 5 -19 10 0 6 -11 10 -25 10 -14 0 -33 4 -43 9 -42 21 -122 31 -255
31 -78 0 -149 -5 -157 -10z m218 -880 c30 0 102 -49 133 -92 30 -40 65 -113
73 -150 5 -23 3 -28 -12 -28 -10 0 -22 4 -27 9 -19 18 -300 37 -310 21 -3 -5
-42 -10 -86 -10 -83 0 -91 6 -70 48 5 9 18 37 29 62 32 69 117 140 169 140 15
0 35 5 43 10 9 6 18 6 24 0 6 -6 21 -10 34 -10z m214 -1208 c7 -5 38 -12 68
-15 30 -3 75 -10 100 -16 25 -5 65 -14 90 -20 25 -6 67 -10 93 -11 40 0 50 -4
54 -20 3 -13 14 -20 29 -20 13 0 39 -9 59 -20 20 -11 48 -20 64 -20 15 0 35
-8 45 -18 9 -11 34 -25 56 -32 22 -7 40 -16 40 -19 0 -3 15 -12 33 -20 59 -25
142 -65 147 -71 3 -4 12 -9 20 -13 27 -12 242 -152 276 -180 10 -9 57 -46 104
-83 103 -82 390 -369 427 -427 14 -23 44 -63 65 -88 21 -25 38 -50 38 -55 0
-6 11 -21 24 -33 14 -13 32 -38 41 -55 27 -51 40 -73 55 -91 15 -18 31 -44 49
-80 6 -11 22 -38 35 -60 46 -73 141 -276 180 -385 15 -41 31 -84 36 -95 5 -11
16 -47 25 -80 9 -33 21 -69 26 -80 10 -24 29 -96 36 -143 3 -18 9 -35 14 -38
5 -3 9 -15 9 -28 0 -12 3 -26 7 -30 4 -4 8 -24 10 -44 1 -20 7 -64 13 -97 6
-33 15 -109 20 -170 9 -117 14 -1974 6 -1983 -6 -5 -2648 -15 -4046 -15 -840
1 -1221 6 -1255 19 -13 5 -15 110 -15 892 0 542 4 917 10 966 6 45 15 131 20
191 5 61 14 133 19 160 6 28 15 82 21 120 6 39 15 79 20 90 4 11 13 38 18 60
26 96 46 161 52 170 4 6 11 26 15 45 4 19 11 41 15 50 21 41 60 132 60 140 0
6 4 18 9 28 5 9 23 46 40 82 17 36 45 90 62 120 17 30 45 80 61 110 60 109
160 266 214 334 159 204 424 469 569 571 16 11 40 29 54 41 31 25 169 114 177
114 3 0 18 9 34 20 40 28 140 83 260 141 101 49 125 60 180 82 14 5 33 13 42
18 10 5 27 9 37 9 11 0 23 4 26 10 3 5 16 10 28 9 27 0 75 10 102 21 25 11 74
20 140 26 28 3 59 9 70 14 32 14 47 15 307 14 157 -1 252 -5 260 -12z m497
-5696 c23 -28 0 -423 -27 -460 -4 -6 -16 -36 -27 -66 -66 -193 -229 -371 -420
-459 -60 -27 -71 -31 -135 -42 -122 -21 -165 -21 -250 -4 -123 24 -143 32
-290 111 -14 8 -65 53 -113 101 -80 80 -148 174 -186 258 -7 17 -17 37 -21 45
-4 9 -11 31 -15 50 -4 19 -11 40 -15 45 -4 6 -11 30 -15 55 -10 61 -17 329
-10 357 l5 22 754 1 c634 0 756 -3 765 -14z"
    />
  </g>
</svg>
