<svg xmlns="http://www.w3.org/2000/svg" height="24" width="24"><path d="m16 21-.3-1.5q-.3-.125-.563-.262-.262-.138-.537-.338l-1.45.45-1-1.7 1.15-1q-.05-.35-.05-.65 0-.3.05-.65l-1.15-1 1-1.7 1.45.45q.275-.2.537-.338.263-.137.563-.262L16 11h2l.3 1.5q.3.125.563.275.262.15.537.375l1.45-.5 1 1.75-1.15 1q.05.3.05.625t-.05.625l1.15 1-1 1.7-1.45-.45q-.275.2-.537.338-.263.137-.563.262L18 21ZM2 20v-2.8q0-.825.425-1.55.425-.725 1.175-1.1 1.275-.65 2.875-1.1Q8.075 13 10 13h.35q.15 0 .3.05-.725 1.8-.6 3.575.125 1.775 1.2 3.375Zm15-2q.825 0 1.413-.587Q19 16.825 19 16q0-.825-.587-1.413Q17.825 14 17 14q-.825 0-1.412.587Q15 15.175 15 16q0 .825.588 1.413Q16.175 18 17 18Zm-7-6q-1.65 0-2.825-1.175Q6 9.65 6 8q0-1.65 1.175-2.825Q8.35 4 10 4q1.65 0 2.825 1.175Q14 6.35 14 8q0 1.65-1.175 2.825Q11.65 12 10 12Z"/></svg>