<svg width="42" height="50" viewBox="0 0 42 50" fill="none" xmlns="http://www.w3.org/2000/svg">
<path fill-rule="evenodd" clip-rule="evenodd" d="M40.473 13.2349L27.9687 1.4189C27.0108 0.513745 25.6904 0 24.3183 0H5.75592C2.90813 0 0.604011 2.20174 0.604011 4.89275L0.578125 44.8602C0.578125 47.5513 2.88225 49.753 5.73003 49.753H36.8227C39.6705 49.753 42.0005 47.5513 42.0005 44.8602V16.7087C42.0005 15.4122 41.4568 14.1645 40.473 13.2349ZM27.6645 32.6284H23.0045V39.142C23.0045 40.4875 21.8395 41.5884 20.4156 41.5884C18.9917 41.5884 17.8267 40.4875 17.8267 39.142V32.6284H13.1926C12.0276 32.6284 11.458 31.3074 12.2865 30.549L19.5354 23.7236C20.0532 23.2588 20.8557 23.2588 21.3735 23.7236L28.5965 30.549C29.3732 31.3074 28.8036 32.6284 27.6645 32.6284ZM26.4671 17.1246C25.0432 17.1246 23.8782 16.0237 23.8782 14.6782V3.66956L38.1171 17.1246H26.4671Z" fill="#F88012"/>
</svg>
