<?xml version="1.0" encoding="UTF-8" standalone="no" ?>
<!DOCTYPE svg PUBLIC "-//W3C//DTD SVG 1.1//EN" "http://www.w3.org/Graphics/SVG/1.1/DTD/svg11.dtd">
<svg
  xmlns="http://www.w3.org/2000/svg"
  xmlns:xlink="http://www.w3.org/1999/xlink"
  version="1.1"
  width="640"
  height="640"
  viewBox="0 0 640 640"
  xml:space="preserve"
>
  <desc>Created with Fabric.js 4.6.0</desc>
  <defs></defs>
  <g transform="matrix(0.89 0 0 0.89 319.44 323.18)" id="gDKPP4NO6Ra-sQta25SH5">
    <path
      vector-effect="non-scaling-stroke"
      transform=" translate(-570.75, -586.29)"
      d="M 782.79 820.83 L 782.79 545.6300000000001 C 782.79 488.10000000000014 759.02 459.3200000000001 711.51 459.3200000000001 C 664 459.3200000000001 640.2 488.10000000000014 640.2 545.6300000000001 L 640.2 820.8300000000002 L 500.1 820.8300000000002 L 500.1 545.6300000000001 C 500.1 488.10000000000014 476.73 459.3200000000001 430.02000000000004 459.3200000000001 C 383.31000000000006 459.3200000000001 358.74 488.10000000000014 358.74 545.6300000000001 L 358.74 820.8300000000002 L 218.62 820.8300000000002 L 218.62 529.3800000000001 C 218.62 469.3300000000001 239.46 423.8800000000001 281.16 393.05000000000007 C 317.86 365.5200000000001 367.5 351.74000000000007 430.02000000000004 351.74000000000007 C 492.5400000000001 351.74000000000007 540.1 368.01000000000005 570.1400000000001 400.5400000000001 C 595.9800000000001 368.0100000000001 643.0900000000001 351.74000000000007 711.5000000000001 351.74000000000007 C 774.0400000000001 351.74000000000007 823.6300000000001 365.52000000000004 860.3300000000002 393.05000000000007 C 902.0200000000002 423.88000000000005 922.8700000000001 469.33000000000004 922.8700000000001 529.3800000000001 L 922.8700000000001 820.8300000000002 L 782.7700000000001 820.8300000000002 Z"
      stroke-linecap="round"
    />
  </g>
</svg>
