<?xml version="1.0" encoding="UTF-8" standalone="no" ?>
<!DOCTYPE svg PUBLIC "-//W3C//DTD SVG 1.1//EN" "http://www.w3.org/Graphics/SVG/1.1/DTD/svg11.dtd">
<svg xmlns="http://www.w3.org/2000/svg" xmlns:xlink="http://www.w3.org/1999/xlink" version="1.1" width="640" height="640" viewBox="0 0 640 640" xml:space="preserve">
<desc>Created with Fabric.js 4.6.0</desc>
<defs>
</defs>
<g transform="matrix(1.07 0 0 1.07 320.24 380.1)" id="q1zg4yRAAY351EHKUOCFZ"  >
<path style="stroke: none; stroke-width: 1; stroke-dasharray: none; stroke-linecap: butt; stroke-dashoffset: 0; stroke-linejoin: miter; stroke-miterlimit: 4; fill: rgb(51,51,51); fill-rule: nonzero; opacity: 1;" vector-effect="non-scaling-stroke"  transform=" translate(-338.27, -460.8)" d="M 490.78 330.55 L 629.9499999999999 228.95000000000002 L 628.16 222.74 C 377.12 253.45000000000002 262.88 275.26 46.60000000000002 400.62 L 48.60000000000002 406.32 L 65.80000000000003 406.48 C 64.20000000000003 423.8 61.47000000000003 466.59000000000003 64.99000000000002 530.9200000000001 C 40.99000000000002 600.3800000000001 64.38000000000002 647.5600000000001 86.34000000000003 698.8600000000001 C 89.81000000000003 645.4000000000001 89.45000000000003 587.0000000000001 73.05000000000004 528.8300000000002 C 69.64000000000004 464.94000000000017 72.46000000000004 422.90000000000015 74.00000000000004 406.5600000000002 L 217.37000000000006 407.9300000000002 C 217.37000000000006 407.9300000000002 216.43000000000006 451.2300000000002 221.61000000000007 491.9900000000002 C 349.74000000000007 537.0100000000002 478.5800000000001 491.8400000000002 546.94 380.8600000000002 C 528.0200000000001 359.58000000000015 490.7800000000001 330.5500000000002 490.7800000000001 330.5500000000002 Z" stroke-linecap="round" />
</g>
</svg>