<?xml version="1.0" encoding="UTF-8" standalone="no" ?>
<!DOCTYPE svg PUBLIC "-//W3C//DTD SVG 1.1//EN" "http://www.w3.org/Graphics/SVG/1.1/DTD/svg11.dtd">
<svg
  xmlns="http://www.w3.org/2000/svg"
  xmlns:xlink="http://www.w3.org/1999/xlink"
  version="1.1"
  width="640"
  height="640"
  viewBox="0 0 640 640"
  xml:space="preserve"
>
  <desc>Created with Fabric.js 4.6.0</desc>
  <defs></defs>
  <g transform="matrix(1 0 0 1 319.44 320)" id="YHSlrR9a8TBKfcA6zCi8_">
    <path
      vector-effect="non-scaling-stroke"
      transform=" translate(-315.46, -215.31)"
      d="M 530.0568 430.6284 L 530.0568 232.4844 C 530.0568 191.06279999999998 512.9423999999999 170.3412 478.73519999999996 170.3412 C 444.52799999999996 170.3412 427.39199999999994 191.06279999999998 427.39199999999994 232.4844 L 427.39199999999994 430.6284 L 326.5199999999999 430.6284 L 326.5199999999999 232.4844 C 326.5199999999999 202.9965 317.9924299999999 183.9993 300.9450999999999 175.50057999999999 C 279.06461999999993 189.88296 254.51209999999992 199.45144 228.49319999999992 203.72564999999997 C 226.00271999999993 211.83502999999996 224.74080999999993 221.42141999999998 224.74080999999993 232.48438999999996 L 224.74080999999993 430.62838999999997 L 123.85440999999993 430.62838999999997 L 123.85440999999993 220.78438999999997 C 123.85440999999993 211.30556999999996 124.57559999999992 202.33199999999997 126.01811999999993 193.86381999999998 C 126.01447999999992 193.86253999999997 126.01084999999992 193.86126 126.00720999999993 193.85998999999998 C 122.27760999999992 164.51279 122.95440999999992 133.33678999999998 122.95440999999992 133.33678999999998 L 19.728009999999927 132.35038999999998 C 18.619209999999928 144.11518999999998 16.588809999999928 174.38398999999998 19.044009999999925 220.38478999999998 C 30.852009999999925 262.26718999999997 31.111209999999925 304.31519 28.612809999999925 342.80638999999996 C 12.801609999999926 305.87039 -4.039190000000076 271.90079 13.240809999999925 221.88958999999997 C 10.706409999999925 175.57198999999997 12.672009999999926 144.76318999999995 13.824009999999925 132.29278999999997 L 1.4400099999999245 132.17758999999998 L 0.000009999999924570346 128.07358999999997 C 155.7216099999999 37.81438999999996 237.97440999999992 22.111189999999965 418.72320999999994 -0.000010000000031595846 L 420.0120099999999 4.471189999999968 L 319.8096099999999 77.62318999999997 C 319.8096099999999 77.62318999999997 346.6224099999999 98.52478999999997 360.2448099999999 113.84638999999996 C 360.2444899999999 113.84690999999995 360.24416999999994 113.84742999999996 360.2438499999999 113.84795999999996 C 366.4510099999999 117.96543999999996 372.0265699999999 122.68934999999996 376.94880999999987 128.01958999999997 C 395.5536099999999 104.59798999999997 429.47280999999987 92.88358999999997 478.72800999999987 92.88358999999997 C 523.7568099999999 92.88358999999997 559.4616099999998 102.80518999999997 585.8856099999998 122.62678999999997 C 615.9024099999998 144.82438999999997 630.9144099999999 177.54838999999998 630.9144099999999 220.78438999999997 L 630.9144099999999 430.62838999999997 z"
      stroke-linecap="round"
    />
  </g>
</svg>
