<svg width="387.42" height="98.74" xmlns="http://www.w3.org/2000/svg" data-name="Layer 1">

 <g>
  <title>Layer 1</title>
  <path id="svg_8" fill="#f58020" d="m25.06,73.35l15.48,0a2.12,2.12 0 0 0 2.11,-2.11a2.47,2.47 0 0 0 -0.23,-1l-7,-15.65a2.81,2.81 0 0 0 -2.59,-1.72a3,3 0 0 0 -2.57,1.74l-7,15.62a2.29,2.29 0 0 0 -0.25,1.05a2.07,2.07 0 0 0 2.05,2.07z" class="cls-1"/>
  <path id="svg_9" fill="#363636" d="m32.81,25.7l24.46,54.57a4.36,4.36 0 0 0 4,2.92a3.9,3.9 0 0 0 3.89,-3.9a5.26,5.26 0 0 0 -0.49,-2l-26.55,-58a5.07,5.07 0 0 0 -4.9,-3.48l-0.37,0c-2.33,0 -3.91,1.1 -5,3.47l-26.57,58.08a4.63,4.63 0 0 0 -0.51,2.12a3.72,3.72 0 0 0 3.71,3.71a4,4 0 0 0 3.87,-2.73l24.46,-54.76z" class="cls-2"/>
  <path id="svg_10" fill="#363636" d="m106.05,69.88a3.15,3.15 0 0 0 -2.29,1c-4.12,3.9 -8.45,5.8 -13.23,5.8c-9.77,0 -17.42,-8.11 -17.42,-18.46l0,-0.19c0,-10.29 7.45,-18.35 16.95,-18.35c5.94,0 9.88,2.88 13,5.71a4,4 0 0 0 2.55,0.92a3.8,3.8 0 0 0 3.8,-3.8a3.75,3.75 0 0 0 -1.23,-2.78a25.47,25.47 0 0 0 -43.18,18.52l0,0.19a25.29,25.29 0 0 0 25.12,25.4c7.24,0 13.11,-2.5 18.47,-7.86a3.59,3.59 0 0 0 1,-2.49a3.7,3.7 0 0 0 -3.54,-3.61z" class="cls-2"/>
  <path id="svg_11" fill="#363636" d="m134.94,33a38.39,38.39 0 0 0 -15.94,3.33a3.67,3.67 0 0 0 -2.18,3.31a3.53,3.53 0 0 0 3.52,3.43a4,4 0 0 0 1.45,-0.31a29.86,29.86 0 0 1 12.39,-2.68c9.06,0 14.05,4.56 14.05,12.84l0,1.23a51.31,51.31 0 0 0 -14.52,-1.94c-13.15,0 -21,6 -21,15.95l0,0.19c0,10.11 9.25,15.4 18.38,15.4c8.72,0 14.07,-4 17.14,-7.69l0,3.42a3.68,3.68 0 0 0 3.81,3.71a3.77,3.77 0 0 0 3.8,-3.9l0,-26.46c0,-6.18 -1.7,-11 -5.06,-14.36c-3.59,-3.61 -8.93,-5.47 -15.84,-5.47zm-2.43,44.32c-5.69,0 -11.81,-2.91 -11.81,-9.29l0,-0.19c0,-6 5.15,-9.66 13.77,-9.66a50.35,50.35 0 0 1 13.87,2l0,4.42c0,7.28 -6.81,12.76 -15.83,12.76l0,-0.04z" class="cls-2"/>
  <path id="svg_12" fill="#363636" d="m205.28,13.31a3.85,3.85 0 0 0 -3.89,4l0,24.91c-4.7,-6.34 -10.81,-9.56 -18.17,-9.56c-11.36,0 -23.43,8.94 -23.43,25.5l0,0.19c0,16.49 12.07,25.4 23.43,25.4c7.36,0 13.31,-3.28 18.17,-10l0,5.45a4,4 0 0 0 4,4a3.9,3.9 0 0 0 3.89,-4l0,-61.9a3.94,3.94 0 0 0 -4,-3.99zm-20.75,63.3c-9.51,0 -16.67,-7.89 -16.67,-18.36l0,-0.19c0,-10.75 6.85,-18.26 16.67,-18.26c8.42,0 17.14,6.83 17.14,18.26l0,0.19c0,8.83 -6.56,18.36 -17.14,18.36z" class="cls-2"/>
  <path id="svg_13" fill="#363636" d="m237,32.66c-13.19,0 -23.53,11.2 -23.53,25.5l0,0.19c0,14.53 10.52,25.49 24.47,25.49a24.85,24.85 0 0 0 18.45,-7.38a3.42,3.42 0 0 0 1.24,-2.59a3.48,3.48 0 0 0 -3.52,-3.43a3.57,3.57 0 0 0 -2.29,0.93a19.45,19.45 0 0 1 -13.7,5.52c-8.91,0 -15.55,-6.28 -16.63,-15.68l34.58,0a3.71,3.71 0 0 0 3.71,-3.71c0.01,-12.34 -7.78,-24.84 -22.78,-24.84zm-0.19,6.77c6.56,0 13.92,4.15 15,15.77l-30.31,0c1.07,-9.31 7.33,-15.77 15.32,-15.77l-0.01,0z" class="cls-2"/>
  <path id="svg_14" fill="#363636" d="m319.88,32.66c-7.18,0 -12.74,3 -17,9.29a16.74,16.74 0 0 0 -15.56,-9.29c-8,0 -12.24,4.11 -15.27,8.4l0,-3.85a4,4 0 0 0 -4,-4a4,4 0 0 0 -3.89,4l0,42a4,4 0 0 0 4,4a3.86,3.86 0 0 0 3.9,-4l0,-24.42c0,-8.63 5.52,-14.9 13.12,-14.9s12.11,5.26 12.11,14.11l0,25.2a3.91,3.91 0 0 0 3.9,4a4,4 0 0 0 4,-4l0,-24.69c0,-8.74 5.2,-14.62 12.94,-14.62s12.18,5.19 12.18,14.25l0,25.06a4,4 0 0 0 4,4a3.9,3.9 0 0 0 3.89,-4l0,-26.75c-0.03,-12.2 -7.03,-19.79 -18.32,-19.79z" class="cls-2"/>
  <path id="svg_15" fill="#363636" d="m381.88,33.22a4,4 0 0 0 -3.78,2.93l-14.66,37.3l-16.44,-37.21c-0.84,-2 -2.13,-3 -4,-3a3.91,3.91 0 0 0 -4,3.9a5.35,5.35 0 0 0 0.5,2.11l20.12,42.68l-0.31,0.61c-2.72,6.12 -5.27,8.4 -9.41,8.4a14.28,14.28 0 0 1 -5.12,-0.83a5.88,5.88 0 0 0 -1.89,-0.39a3.47,3.47 0 0 0 -3.42,3.43a3.62,3.62 0 0 0 2.47,3.41a23.13,23.13 0 0 0 8.06,1.44c7.57,0 12.35,-4 16.49,-13.86l18.89,-45.14a6.35,6.35 0 0 0 0.39,-1.88a3.9,3.9 0 0 0 -3.89,-3.9z" class="cls-2"/>
 </g>
</svg>