<?xml version="1.0" encoding="utf-8"?>
<!-- Generator: Adobe Illustrator 22.0.0, SVG Export Plug-In . SVG Version: 6.00 Build 0)  -->
<svg version="1.1" id="Layer_1" xmlns="http://www.w3.org/2000/svg" xmlns:xlink="http://www.w3.org/1999/xlink" x="0px" y="0px"
	 viewBox="0 0 1285.3 245.9" style="enable-background:new 0 0 1285.3 245.9;" xml:space="preserve">
<g>
	<path style="fill:#FFFFFF;stroke:#FFFFFF;stroke-width:4.847;stroke-miterlimit:10;" d="M913.3,71.6c0-5,4.3-9.4,9.4-9.4h2.6
		c4.3,0,7,2.2,9.6,5.5L1037,198V71.1c0-5,4.1-9.4,9.4-9.4c5,0,9.1,4.3,9.1,9.4V223c0,5-3.6,8.9-8.7,8.9h-1c-4.1,0-7-2.4-9.9-5.8
		L931.8,92.7V223c0,5-4.1,9.4-9.4,9.4c-5,0-9.1-4.3-9.1-9.4V71.6z"/>
	<path style="fill:#FFFFFF;stroke:#FFFFFF;stroke-width:4.847;stroke-miterlimit:10;" d="M1139.9,234c-34.1,0-62-26.2-62-64.6v-0.5
		c0-35.8,25.2-64.6,59.6-64.6c36.8,0,57.7,30,57.7,63c0,5-4.1,8.7-8.7,8.7h-89.9c2.6,26.9,21.6,42.1,43.7,42.1
		c15.4,0,26.7-6,35.8-14.4c1.4-1.2,3.1-2.2,5.3-2.2c4.6,0,8.2,3.6,8.2,7.9c0,2.2-1,4.3-2.9,6C1174.9,226.6,1161,234,1139.9,234z
		 M1176.6,162.2c-1.9-22.6-14.9-42.3-39.6-42.3c-21.6,0-38,18-40.4,42.3H1176.6z"/>
	<path style="fill:#FFFFFF;stroke:#FFFFFF;stroke-width:4.847;stroke-miterlimit:10;" d="M1219.9,198.2v-75h-10.1
		c-4.3,0-8.2-3.8-8.2-8.2c0-4.6,3.8-8.2,8.2-8.2h10.1V77.6c0-5,3.8-9.4,9.1-9.4c5,0,9.4,4.3,9.4,9.4v29.3h32.2
		c4.6,0,8.4,3.8,8.4,8.2c0,4.6-3.8,8.2-8.4,8.2h-32.2v72.6c0,15.1,8.4,20.7,20.9,20.7c6.5,0,9.9-1.7,11.3-1.7c4.3,0,7.9,3.6,7.9,7.9
		c0,3.4-2.2,6-5.3,7.2c-5.3,2.2-11.1,3.4-18.3,3.4C1235,233.3,1219.9,223.4,1219.9,198.2z"/>
</g>
<g>
	<path style="fill:#ED7E22;" d="M215.2,229v-78.4c0-16.4-6.8-24.6-20.3-24.6c-13.6,0-20.3,8.2-20.3,24.6V229h-39.9v-78.4
		c0-16.4-6.7-24.6-20-24.6c-13.5,0-20.3,8.2-20.3,24.6V229H54.4v-83.1c0-17.1,5.9-30.1,17.8-38.9c10.5-7.8,24.6-11.8,42.4-11.8
		c18.1,0,31.4,4.6,39.9,13.9c7.4-9.3,20.8-13.9,40.3-13.9c17.8,0,32,3.9,42.4,11.8c11.9,8.8,17.8,21.7,17.8,38.9V229H215.2z"/>
	<path style="fill:#ED7E22;" d="M704.7,228.6V4.5h40v224.1H704.7z"/>
	<path style="fill:#ED7E22;" d="M653.7,228.6v-13.2c-3.6,4.8-9.6,8.6-18.2,11.4c-7.6,2.6-14.9,3.9-21.8,3.9
		c-19,0-34.3-6.5-45.8-19.6c-11.5-13.1-17.3-29.3-17.3-48.5c0-19,5.6-35,17-47.8c10-11.3,26.3-19.3,45.1-19.3
		c21.2,0,33.5,7.9,41,17.1V4.5h38.9v224.1H653.7z M653.7,154c0-7.1-3.4-14-10.2-20.5c-6.8-6.5-13.7-9.8-20.9-9.8
		c-10.2,0-18.3,4.2-24.3,12.5c-5.2,7.4-7.8,16.4-7.8,27.1c0,10.5,2.6,19.4,7.8,26.8c5.9,8.6,14,12.8,24.3,12.8
		c6.2,0,12.9-2.9,20.2-8.7c7.3-5.8,10.9-11.8,10.9-18V154z"/>
	<path style="fill:#ED7E22;" d="M475.3,232.2c-20.2,0-36.9-6.4-50.1-19.3c-13.2-12.8-19.8-29.4-19.8-49.6c0-20.2,6.6-36.7,19.8-49.6
		c13.2-12.8,29.9-19.3,50.1-19.3c20.2,0,37,6.4,50.3,19.3c13.3,12.8,20,29.4,20,49.6c0,20.2-6.7,36.8-20,49.6
		C512.3,225.7,495.5,232.2,475.3,232.2z M475.3,126.5c-9.6,0-17,3.6-22.2,10.9c-5.2,7.3-7.8,16-7.8,26c0,10,2.4,18.5,7.2,25.5
		c5.5,7.9,13.1,11.8,22.8,11.8c9.6,0,17.2-3.9,22.7-11.8c5.1-6.9,7.6-15.4,7.6-25.5c0-10-2.4-18.5-7.2-25.5
		C492.9,130.4,485.2,126.5,475.3,126.5z"/>
	<path style="fill:#ED7E22;" d="M330.8,232.2c-20.2,0-36.9-6.4-50.1-19.3c-13.2-12.8-19.8-29.4-19.8-49.6c0-20.2,6.6-36.7,19.8-49.6
		c13.2-12.8,29.9-19.3,50.1-19.3c20.2,0,37,6.4,50.3,19.3c13.3,12.8,20,29.4,20,49.6c0,20.2-6.7,36.8-20,49.6
		C367.8,225.7,351,232.2,330.8,232.2z M330.8,126.5c-9.6,0-17,3.6-22.2,10.9c-5.2,7.3-7.8,16-7.8,26c0,10,2.4,18.5,7.2,25.5
		c5.5,7.9,13.1,11.8,22.8,11.8c9.6,0,17.2-3.9,22.7-11.8c5.1-6.9,7.6-15.4,7.6-25.5c0-10-2.4-18.5-7.2-25.5
		C348.4,130.4,340.7,126.5,330.8,126.5z"/>
	<path style="fill:#ED7E22;" d="M792,175.4c0.9,9.5,13.2,30,33.6,30c19.8,0,29.1-11.4,29.6-16.1l42.1-0.4
		c-4.6,14-23.3,43.9-72.4,43.9c-20.5,0-39.2-6.4-52.6-19.1C758.7,201.1,752,184.5,752,164c0-21.2,6.7-38,20.2-50.5
		c13.4-12.5,30.9-18.7,52.3-18.7c23.3,0,41.5,7.7,54.6,23.2c12.1,14.3,18.2,33.4,18.2,57.4H792z M857.3,150.8
		c-1.7-8.6-5.2-15.6-10.7-21.1c-6.2-5.9-13.3-8.9-21.4-8.9c-8.3,0-15.3,2.8-20.9,8.6c-5.6,5.7-9.3,12.8-11.2,21.4H857.3z"/>
	<path style="fill:#585858;" d="M132,89.2l39.7-29l-0.5-1.8C99.6,67.2,67,73.5,5.4,109.2l0.6,1.6l4.9,0c-0.5,4.9-1.2,17.1-0.2,35.5
		c-6.8,19.8-0.2,33.2,6.1,47.9c1-15.2,0.9-31.9-3.8-48.5c-1-18.2-0.2-30.2,0.3-34.9l40.9,0.4c0,0-0.3,12.3,1.2,24
		c36.5,12.8,73.2,0,92.7-31.7C142.6,97.5,132,89.2,132,89.2z"/>
</g>
</svg>
