<svg xmlns="http://www.w3.org/2000/svg" viewBox="0 0 124 124"><g id="final"><g id="Moodle_Net" data-name="Moodle Net"><path d="M64.4,38l-.14-.49c-18.68,1.93-29.62,4.43-45.74,14l.15.48L20.32,52a56.63,56.63,0,0,0-.15,8.32l0,1.28c-2,5.52,0,9.94,1.68,14,0-5,.21-9.06-1.2-14.23A68.44,68.44,0,0,1,20.8,52l2.08-.07c3,.11,6.18.26,9.21.27a30.55,30.55,0,0,0,.17,6.54c10.4,3.53,20.28.31,25.48-8.8a49.77,49.77,0,0,0-4.38-3.82Z" style="fill:#333"/><path d="M32.26,58.69a17.7,17.7,0,0,0-.25,3V84.61H43V62.94a10.76,10.76,0,0,1,.39-3.07A24,24,0,0,1,32.26,58.69Z" style="fill:#f98012"/><path d="M82.52,50.94q-4.33-3.25-11.71-3.26c-5.39,0-9.09,1.29-11.13,3.84a10.5,10.5,0,0,0-1.94-1.62,20.43,20.43,0,0,1-6.26,6.87c1.79,1,2.69,3,2.69,6.17V84.61h11V62.94c0-4.52,1.86-6.79,5.61-6.79s5.61,2.27,5.61,6.79V84.61h11V61.67Q87.44,54.58,82.52,50.94Z" style="fill:#f98012"/><path d="M113.08,46.81l-.21,0A55.37,55.37,0,0,0,39.43,11.49a10.87,10.87,0,0,0-18.14,11.7,55.37,55.37,0,0,0,11.26,88.2,10.41,10.41,0,0,0-.17,1.69,10.88,10.88,0,0,0,20.55,5A55.14,55.14,0,0,0,115,68.45a10.91,10.91,0,0,0-2-21.64Zm-53.28,67a49.46,49.46,0,0,1-5.62-.33c0-.14,0-.27,0-.41a10.92,10.92,0,0,0-19.91-6.19,50.62,50.62,0,0,1-10.06-80,10.79,10.79,0,0,0,6.87,2.5A10.92,10.92,0,0,0,42,18.5a10.8,10.8,0,0,0-.39-2.75A50.6,50.6,0,0,1,108.25,48a10.86,10.86,0,0,0,2,20.26A50.81,50.81,0,0,1,59.8,113.82Z" style="fill:#f98012"/></g></g></svg>