<?xml version="1.0" encoding="utf-8"?>
<!-- Generator: Adobe Illustrator 24.2.1, SVG Export Plug-In . SVG Version: 6.00 Build 0)  -->
<svg version="1.1" id="Ebene_1" xmlns="http://www.w3.org/2000/svg" xmlns:xlink="http://www.w3.org/1999/xlink" x="0px" y="0px"
	 viewBox="0 0 42 72" style="enable-background:new 0 0 42 72;" xml:space="preserve">
<style type="text/css">
	.st0{fill:#FFFFFF;}
	.st1{fill:#6D6F71;}
</style>
<path class="st0" d="M22.4,7c9.4,0,17,7.6,17,17c0,6.3-2.9,11.7-7.6,14.7c-0.1,0.1-0.2,0.2-0.2,0.3c0,0.1,0.1,0.2,0.2,0.3
	c6.1,2.4,9.9,8.6,9.9,15.9c0,9.4-7.6,17-17,17H2.4C1.1,72,0,70.9,0,69.6V9.4C0,8.1,1.1,7,2.4,7H22.4z"/>
<path class="st1" d="M14.2,60.5c-0.3,0-0.6-0.3-0.6-0.6V46.3c0-0.3,0.3-0.6,0.6-0.6h0.9c0.3,0,0.6,0.3,0.6,0.6v6h5.3v-6
	c0-0.3,0.3-0.6,0.6-0.6h0.9c0.3,0,0.6,0.3,0.6,0.6v13.6c0,0.3-0.3,0.6-0.6,0.6h-0.9c-0.3,0-0.6-0.3-0.6-0.6V54h-5.3v5.8
	c0,0.3-0.3,0.6-0.6,0.6L14.2,60.5L14.2,60.5z"/>
<path class="st1" d="M14.1,33.2c-0.3,0-0.6-0.3-0.6-0.6V19c0-0.3,0.3-0.6,0.6-0.6h8.2c0.3,0,0.6,0.3,0.6,0.6v0.6
	c0,0.3-0.3,0.6-0.6,0.6h-6.8v4.8h5.8c0.3,0,0.6,0.3,0.6,0.6V26c0,0.3-0.3,0.6-0.6,0.6h-5.8v6c0,0.3-0.3,0.6-0.6,0.6H14.1z"/>
</svg>
