<?xml version="1.0" encoding="utf-8"?>
<svg viewBox="0 0 500 500" xmlns="http://www.w3.org/2000/svg">
  <path style="fill: rgb(51, 51, 51);" d="M 327.215 210.734 L 410.482 149.909 L 409.435 146.132 C 259.259 164.59 190.882 177.803 61.682 252.682 L 62.94 256.037 L 73.217 256.037 C 72.168 266.316 70.7 291.904 72.799 330.496 C 58.535 372.025 72.378 400.13 85.593 430.963 C 87.689 399.081 87.48 364.055 77.621 329.238 C 75.525 291.065 77.202 265.895 78.251 256.037 L 164.036 256.877 C 164.036 256.877 163.407 282.675 166.553 307.214 C 243.109 334.061 320.083 307.214 360.983 240.726 C 349.448 228.142 327.215 210.734 327.215 210.734 Z"/>
</svg>