<svg xmlns="http://www.w3.org/2000/svg" version="1.0" width="1200.000000" height="1200.000000" preserveAspectRatio="xMidYMid meet"><rect id="backgroundrect" width="100%" height="100%" x="0" y="0" fill="none" stroke="none"/>


<g class="currentLayer" style=""><title>Layer 1</title><g transform="translate(0,1200) scale(0.10000000149011612,-0.10000000149011612) " fill="#f88031" stroke="none" id="svg_1" class="selected" fill-opacity="1">
<path d="M5710 11494 c-1094 -65 -2102 -427 -2975 -1068 -300 -221 -713 -608 -945 -886 -660 -793 -1078 -1718 -1229 -2720 -44 -295 -55 -460 -55 -820 0 -360 11 -525 55 -820 152 -1007 576 -1941 1239 -2730 142 -169 475 -502 640 -642 796 -670 1741 -1100 2745 -1247 310 -46 445 -55 815 -55 369 0 499 9 815 55 998 145 1976 590 2755 1255 156 133 493 471 622 624 606 720 1009 1548 1197 2460 78 377 105 658 105 1095 0 366 -10 525 -55 825 -150 1001 -579 1946 -1239 2730 -137 163 -471 499 -630 635 -854 726 -1883 1166 -3010 1286 -178 19 -684 33 -850 23z m590 -1004 c1103 -77 2107 -534 2885 -1314 874 -877 1346 -2059 1312 -3291 -19 -676 -171 -1289 -468 -1885 -229 -458 -488 -819 -849 -1180 -685 -687 -1563 -1130 -2515 -1270 -208 -31 -316 -40 -550 -46 -1400 -40 -2739 581 -3624 1681 -446 554 -753 1205 -896 1897 -296 1434 112 2900 1107 3978 377 409 828 741 1350 995 689 334 1483 488 2248 435z" id="svg_2" fill="#f88031"/>
<path d="M5883 8486 c-181 -44 -334 -202 -372 -384 -7 -36 -11 -301 -11 -827 l0 -775 -775 0 c-526 0 -791 -4 -827 -11 -226 -47 -398 -259 -398 -489 0 -230 172 -442 398 -489 36 -7 301 -11 827 -11 l775 0 0 -775 c0 -526 4 -791 11 -827 47 -226 259 -398 489 -398 230 0 442 172 489 398 7 36 11 301 11 827 l0 775 775 0 c526 0 791 4 827 11 226 47 398 259 398 489 0 230 -172 442 -398 489 -36 7 -301 11 -827 11 l-775 0 0 775 c0 526 -4 791 -11 827 -39 187 -200 348 -387 387 -67 14 -153 13 -219 -3z" id="svg_3" fill="#f88031"/>
</g></g></svg>