<?xml version="1.0" encoding="UTF-8" standalone="no" ?>
<!DOCTYPE svg PUBLIC "-//W3C//DTD SVG 1.1//EN" "http://www.w3.org/Graphics/SVG/1.1/DTD/svg11.dtd">
<svg xmlns="http://www.w3.org/2000/svg" xmlns:xlink="http://www.w3.org/1999/xlink" version="1.1" width="36" height="36" viewBox="0 0 500 500" xml:space="preserve">
<desc>Created with Fabric.js 4.6.0</desc>
<defs>
</defs>
<g transform="matrix(1 0 0 1 248.33 250.73)" id="VOC6_CbrdG4KvKhgIwrbr"  >
<path style="stroke: none; stroke-width: 1; stroke-dasharray: none; stroke-linecap: butt; stroke-dashoffset: 0; stroke-linejoin: miter; stroke-miterlimit: 4; fill-rule: nonzero; opacity: 1;" vector-effect="non-scaling-stroke"  transform=" translate(0, 0)" d="M 24.84047 -242.60889 C 74.83193 -237.28593 120.4763 -217.76841000000002 158.35803 -185.56451 C 165.41096000000002 -179.53182 180.22652000000002 -164.62753 186.30357 -157.39718000000002 C 215.57984000000002 -122.62052000000003 234.60942 -80.70221000000002 241.26312000000001 -36.299860000000024 C 243.25923 -22.992470000000026 243.70281000000003 -15.939550000000025 243.70281000000003 0.29547999999997643 C 243.70281000000003 19.679919999999978 242.50514000000004 32.14451999999997 239.04522000000003 48.86747999999998 C 230.70592000000002 89.32196999999998 212.82964000000004 126.05037999999999 185.94870000000003 157.98814 C 180.22652000000002 164.77491999999998 165.27788000000004 179.76791999999998 158.35803000000004 185.66753 C 123.80316000000005 215.16559 80.42104000000005 234.9049 36.15176000000004 241.33681 C 22.13464000000004 243.37728 16.368100000000037 243.77650000000003 3.552713678800501e-14 243.77650000000003 C -16.412449999999964 243.77650000000003 -22.400779999999965 243.37728 -36.15175999999997 241.33681 C -80.68717999999997 234.81618 -122.60548999999996 215.74225 -157.91445 186.02239000000003 C -165.23352 179.81227000000004 -180.00473 165.04106000000002 -186.30356999999998 157.54456000000002 C -215.71291999999997 122.54611000000003 -234.52069999999998 81.11574000000002 -241.26312 36.44724000000002 C -243.21487 23.361640000000023 -243.70281 16.042570000000023 -243.70281 0.07369000000002046 C -243.70281 -15.89517999999998 -243.21487 -23.21424999999998 -241.26312 -36.29985999999998 C -234.56507 -80.74656999999999 -216.02343 -121.77770999999998 -186.74714999999998 -156.9536 C -176.45609999999996 -169.28512 -158.13624999999996 -186.45166 -144.82885 -196.25477999999998 C -106.10431999999999 -224.68825999999999 -61.391459999999995 -240.74585 -12.863819999999976 -243.62911999999997 C -5.500399999999976 -244.07269999999997 16.944750000000024 -243.45168999999999 24.840470000000025 -242.60888999999997 z M -86.40938 -179.79797 C -109.56425 -168.53104 -129.56971 -153.80419 -146.29267 -135.66177 C -190.42887 -87.84384999999999 -208.52694 -22.815029999999993 -195.39696999999998 40.79433 C -189.05378 71.49006 -175.43588 100.36711 -155.65220999999997 124.94144 C -116.39537999999996 173.73524 -57.00002999999997 201.28154999999998 5.1011600000000215 199.50723 C 15.480930000000022 199.24107999999998 20.27160000000002 198.84186 29.49806000000002 197.46676 C 71.72687000000002 191.25664 110.67318000000003 171.60604999999998 141.05841 141.13210999999998 C 157.07165 125.11887999999999 168.56037 109.10563999999998 178.71835000000002 88.78967999999998 C 191.89267 62.352309999999974 198.63509000000002 35.16085999999998 199.47789 5.174859999999981 C 200.98606 -49.47419000000002 180.04909 -101.90534000000002 141.2802 -140.8073 C 106.76968000000001 -175.40653 62.234260000000006 -195.67813 13.307390000000012 -199.0937 C -20.626479999999987 -201.44467 -55.84671999999999 -194.61354 -86.40937999999998 -179.79797000000002 z M -4.02707 -112.02679 C -1.0851700000000002 -112.73998 2.74822 -112.78455000000001 5.7346900000000005 -112.16051 C 14.070070000000001 -110.42212 21.24652 -103.24566 22.98492 -94.91028 C 23.29694 -93.30561 23.47524 -81.49343999999999 23.47524 -58.04738 L 23.47524 -23.502339999999997 L 58.02028 -23.502339999999997 C 81.46633 -23.502339999999997 93.27851 -23.324039999999997 94.88318000000001 -23.012019999999996 C 104.95696000000001 -20.917029999999997 112.62373000000001 -11.467289999999997 112.62373000000001 -1.2152099999999955 C 112.62373000000001 9.036870000000004 104.95696000000001 18.486610000000006 94.88318000000001 20.581600000000005 C 93.27851000000001 20.893620000000006 81.46634 21.071920000000006 58.02028000000001 21.071920000000006 L 23.475240000000007 21.071920000000006 L 23.475240000000007 55.616960000000006 C 23.475240000000007 79.06301 23.296940000000006 90.87519 22.984920000000006 92.47986 C 20.889930000000007 102.55364 11.440190000000007 110.22041 1.1881100000000053 110.22041 C -9.063969999999994 110.22041 -18.513709999999996 102.55364 -20.608699999999995 92.47986 C -20.920719999999996 90.87519 -21.099019999999996 79.06302 -21.099019999999996 55.61696 L -21.099019999999996 21.07192 L -55.644059999999996 21.07192 C -79.09011 21.07192 -90.90229 20.89362 -92.50695999999999 20.581599999999998 C -102.58073999999999 18.48661 -110.24750999999999 9.036869999999999 -110.24750999999999 -1.2152100000000026 C -110.24750999999999 -11.467290000000002 -102.58073999999999 -20.917030000000004 -92.50695999999999 -23.012020000000003 C -90.90229 -23.324040000000004 -79.09011999999998 -23.502340000000004 -55.64405999999999 -23.502340000000004 L -21.09901999999999 -23.502340000000004 L -21.09901999999999 -58.047380000000004 C -21.09901999999999 -81.49343 -20.92071999999999 -93.30561 -20.60869999999999 -94.91028 C -18.91487999999999 -103.02279 -12.095019999999987 -110.06551999999999 -4.027079999999987 -112.02679 z" stroke-linecap="round" />
</g>
</svg>