<?xml version="1.0" encoding="utf-8"?>
<svg height="512" width="512" style="" xmlns="http://www.w3.org/2000/svg">
  <rect id="backgroundrect" width="100%" height="100%" x="0" y="0" fill="none" stroke="none"/>
  <g class="currentLayer" style="">
    <title>Layer 1</title>
    <path d="M 512 268 C 512 285.9 507.7 302.5 499.1 317.7 C 490.5 332.9 479 344.8 464.5 353.1 C 464.9 355.8 465.1 360 465.1 365.7 C 465.1 392.8 456 415.8 438 434.8 C 419.9 453.9 398.1 463.4 372.6 463.4 C 361.2 463.4 350.3 461.3 340 457.1 C 332 473.5 320.5 486.7 305.4 496.8 C 290.4 507 273.9 512 256 512 C 237.7 512 221.1 507.1 206.3 497.1 C 191.4 487.2 180 473.9 172 457.1 C 161.7 461.3 150.9 463.4 139.4 463.4 C 113.9 463.4 92 453.9 73.7 434.8 C 55.4 415.8 46.3 392.7 46.3 365.7 C 46.3 362.7 46.7 358.5 47.4 353.1 C 32.9 344.7 21.4 332.9 12.8 317.7 C 4.3 302.5 0 285.9 0 268 C 0 249 4.8 231.5 14.3 215.7 C 23.8 199.9 36.6 188.2 52.6 180.6 C 48.4 169.2 46.3 157.7 46.3 146.3 C 46.3 119.3 55.4 96.2 73.7 77.2 C 92 58.2 113.9 48.6 139.4 48.6 C 150.8 48.6 161.7 50.7 172 54.9 C 180 38.5 191.5 25.3 206.6 15.2 C 221.6 5.1 238.1 0 256 0 C 273.9 0 290.4 5.1 305.4 15.1 C 320.4 25.2 332 38.4 340 54.8 C 350.3 50.6 361.1 48.5 372.6 48.5 C 398.1 48.5 419.9 58 438 77.1 C 456.1 96.2 465.1 119.2 465.1 146.2 C 465.1 158.8 463.2 170.2 459.4 180.5 C 475.4 188.1 488.2 199.8 497.7 215.6 C 507.2 231.5 512 249 512 268 L 512 268 Z" id="svg_1" class="" fill-opacity="1" fill="#f88031"/>
    <path d="M 245.783 341.179 L 351.483 182.879 C 354.183 178.679 354.983 174.079 354.083 169.179 C 353.083 164.279 350.583 160.379 346.383 157.779 C 342.183 155.079 337.583 154.179 332.683 154.879 C 327.683 155.679 323.683 158.079 320.683 162.279 L 227.583 302.279 L 184.683 259.479 C 180.883 255.679 176.483 253.879 171.583 254.079 C 166.583 254.279 162.283 256.079 158.483 259.479 C 155.083 262.879 153.383 267.179 153.383 272.379 C 153.383 277.479 155.083 281.779 158.483 285.279 L 217.383 344.179 L 220.283 346.479 C 223.683 348.779 227.183 349.879 230.583 349.879 C 237.283 349.779 242.383 346.979 245.783 341.179 Z" id="path-1" class="" fill-opacity="1" style="fill: rgb(255, 255, 255);"/>
  </g>
</svg>