<?xml version="1.0" encoding="UTF-8" standalone="no" ?>
<!DOCTYPE svg PUBLIC "-//W3C//DTD SVG 1.1//EN" "http://www.w3.org/Graphics/SVG/1.1/DTD/svg11.dtd">
<svg xmlns="http://www.w3.org/2000/svg" xmlns:xlink="http://www.w3.org/1999/xlink" version="1.1" width="500" height="500" viewBox="0 0 640 640" xml:space="preserve">
<desc>Created with Fabric.js 4.6.0</desc>
<defs>
</defs>
<g transform="matrix(1.03 0 0 1.03 319.73 319.84)" id="zd2vP3yMZL2qYzxh2adUb"  >
<g style="" vector-effect="non-scaling-stroke"   >
		<g transform="matrix(5.16 0 0 5.16 -107.87 -47.52)" id="IEbhZaqsZoDSebuVdKJGs"  >
<path style="stroke: none; stroke-width: 1; stroke-dasharray: none; stroke-linecap: butt; stroke-dashoffset: 0; stroke-linejoin: miter; stroke-miterlimit: 4; fill: rgb(51,51,51); fill-rule: nonzero; opacity: 1;" vector-effect="non-scaling-stroke"  transform=" translate(-41.46, -56.55)" d="M 64.4 38 L 64.26 37.51 C 45.580000000000005 39.44 34.64 41.94 18.520000000000003 51.51 L 18.67 51.989999999999995 L 20.32 52 C 20.06603171326014 54.76590203624486 20.015896397234982 57.546740898439566 20.169999999999987 60.32000000000002 L 20.17 61.6 C 18.17 67.12 20.17 71.54 21.85 75.6 C 21.85 70.6 22.060000000000002 66.53999999999999 20.650000000000002 61.36999999999999 C 20.485857686092455 58.24690800055661 20.535975140706025 55.116237669029275 20.800000000000008 52 L 22.880000000000003 51.93 C 25.880000000000003 52.04 29.060000000000002 52.19 32.09 52.2 C 31.91240953583178 54.37980061469631 31.96940291399302 56.57236939807584 32.260000000000005 58.74000000000001 C 42.660000000000004 62.27 52.540000000000006 59.050000000000004 57.74000000000001 49.94 C 56.355655203095054 48.58243680883751 54.89316240395467 47.30692939040913 53.36 46.11999999999998 Z" stroke-linecap="round" />
</g>
		<g transform="matrix(5.16 0 0 5.16 -127.28 30.39)" id="pEZDNCq54LMSpmwCspgEf"  >
<path style="stroke: none; stroke-width: 1; stroke-dasharray: none; stroke-linecap: butt; stroke-dashoffset: 0; stroke-linejoin: miter; stroke-miterlimit: 4; fill: rgb(249,128,18); fill-rule: nonzero; opacity: 1;" vector-effect="non-scaling-stroke"  transform=" translate(-37.7, -71.65)" d="M 32.26 58.69 C 32.09162406107837 59.68108601906094 32.007988311666686 60.68471501200114 32.01 61.69 L 32.01 84.61 L 43 84.61 L 43 62.94 C 42.981392152806556 61.9032204059603 43.112750416482946 60.86919509958462 43.39 59.87 C 39.638850800307594 60.35933062227451 35.82515510632344 59.955003495688594 32.25999999999999 58.69 Z" stroke-linecap="round" />
</g>
		<g transform="matrix(5.16 0 0 5.16 36.5 1.96)" id="NI50WTZzZPR4IcVzh9M8n"  >
<path style="stroke: none; stroke-width: 1; stroke-dasharray: none; stroke-linecap: butt; stroke-dashoffset: 0; stroke-linejoin: miter; stroke-miterlimit: 4; fill: rgb(249,128,18); fill-rule: nonzero; opacity: 1;" vector-effect="non-scaling-stroke"  transform=" translate(-69.44, -66.14)" d="M 82.52 50.94 Q 78.19 47.69 70.81 47.68 C 65.42 47.68 61.72 48.97 59.68 51.519999999999996 C 59.10092086164731 50.90385650669176 58.44953639573413 50.35991690113539 57.739999999999995 49.89999999999999 C 56.20886591177473 52.640538924007814 54.06677213961425 54.991367073327694 51.480000000000004 56.769999999999996 C 53.27 57.769999999999996 54.17 59.769999999999996 54.17 62.94 L 54.17 84.61 L 65.17 84.61 L 65.17 62.94 C 65.17 58.42 67.03 56.15 70.78 56.15 C 74.53 56.15 76.39 58.42 76.39 62.94 L 76.39 84.61 L 87.39 84.61 L 87.39 61.67 Q 87.44 54.58 82.52 50.94 Z" stroke-linecap="round" />
</g>
		<g transform="matrix(5.16 0 0 5.16 0 0)" id="M-P_OeT3UA7Gu1W90W6lX"  >
<path style="stroke: none; stroke-width: 1; stroke-dasharray: none; stroke-linecap: butt; stroke-dashoffset: 0; stroke-linejoin: miter; stroke-miterlimit: 4; fill: rgb(249,128,18); fill-rule: nonzero; opacity: 1;" vector-effect="non-scaling-stroke"  transform=" translate(-64.11, -65.76)" d="M 113.08 46.81 L 112.87 46.81 C 108.36003372349792 31.996919620221618 97.85335793090839 19.749107737145557 83.89890362867513 13.03789687174688 C 69.94444932644187 6.326686006348204 53.817329134302845 5.765324766049922 39.42999999999998 11.490000000000009 C 35.91833683669747 7.252377172171463 29.793570730687936 6.30801387715365 25.168569052496682 9.291063471135882 C 20.54356737430543 12.274113065118112 18.87786297479649 18.243200997102083 21.29 23.189999999999998 C 8.656060176365962 35.333057146821375 2.515949906882863 52.739884765699614 4.735056248537596 70.1222275129418 C 6.954162590192329 87.50457026018401 17.270526350616606 102.81049201084504 32.55000000000001 111.39000000000001 C 32.44739358056162 111.94776220214644 32.39053770964199 112.51297644834743 32.379999999999995 113.08 C 32.37377450851071 118.10310669539976 35.807110049170646 122.47754506162862 40.687830123120094 123.66506819397641 C 45.568550197069534 124.8525913263242 50.627810715182164 122.5444780352225 52.92999999999999 118.08 C 67.79668545832898 120.02724549294163 82.81530042459002 115.83637132011374 94.52578111438572 106.47289207676654 C 106.23626180418144 97.10941283341934 113.62870406490978 83.38082881105657 115 68.45000000000002 C 120.55344971875327 67.42861836423795 124.40990254707168 62.33856037729616 123.89025082635274 56.71592875911712 C 123.37059910563379 51.093297140938084 118.64657731809389 46.79625898910336 113 46.81 Z M 59.8 113.81 C 57.921920682548595 113.80678979271252 56.045548644581416 113.69661136343687 54.17999999999999 113.48000000000002 C 54.18 113.34 54.18 113.21000000000001 54.18 113.07000000000001 C 54.17610961110207 108.29115672704799 51.06534092741686 104.06997935607858 46.50195411418489 102.65122675065889 C 41.938567300952926 101.23247414523922 36.982777720562666 102.94576624977833 34.26999999999999 106.88000000000002 C 20.569030388857215 98.95613977745204 11.362896855362404 85.08001633732724 9.388163137982389 69.37636848539873 C 7.413429420602373 53.672720633470234 12.897422026136447 37.949313831362545 24.20999999999998 26.880000000000024 C 26.139318240781037 28.487372239560415 28.56885646310006 29.371483674174325 31.08 29.38000000000001 C 37.09536296850334 29.380040355989443 41.97796570354696 24.515322612649285 42 18.500000000000004 C 41.98890622460606 17.570368058401503 41.857822466692966 16.646059509014272 41.61 15.75 C 54.698898058128805 10.675089671421869 69.30784276863099 11.265898483086719 81.94419184608604 17.381178461296876 C 94.5805409235411 23.496458439507034 104.10843969369826 34.58652000976393 108.24999999999999 47.999999999999986 C 104.17228003339461 49.99169127363995 101.76293726969953 54.308908460537296 102.20875952480519 58.82508790475763 C 102.65458177991084 63.341267348977965 105.86155634574583 67.10406031775784 110.25 68.26 C 107.56403985614911 94.11622058295285 85.7953167983502 113.77495244644774 59.8 113.82 Z" stroke-linecap="round" />
</g>
</g>
</g>
</svg>