<?xml version="1.0" encoding="UTF-8" standalone="no" ?>
<!DOCTYPE svg PUBLIC "-//W3C//DTD SVG 1.1//EN" "http://www.w3.org/Graphics/SVG/1.1/DTD/svg11.dtd">
<svg xmlns="http://www.w3.org/2000/svg" xmlns:xlink="http://www.w3.org/1999/xlink" version="1.1" width="500" height="500" viewBox="0 0 500 500" xml:space="preserve">
<desc>Created with Fabric.js 4.6.0</desc>
<defs>
</defs>
<g transform="matrix(1.21 0 0 1.21 250.9 253.61)" id="L3rc8-9q1Qe5bWt-SMrBU"  >
<linearGradient id="SVGID_1275" gradientUnits="userSpaceOnUse" gradientTransform="matrix(1 0 0 1 0 0)"  x1="-14.615384615384613" y1="182.092007868077" x2="417.6870859415387" y2="182.0920078680771">
<stop offset="0%" style="stop-color:#FF1500;stop-opacity: 1"/>
<stop offset="11.202736021828333%" style="stop-color:#F3A907;stop-opacity: 1"/>
<stop offset="19.743764453960576%" style="stop-color:#C5DE23;stop-opacity: 1"/>
<stop offset="30.24211190178978%" style="stop-color:#4DDC58;stop-opacity: 1"/>
<stop offset="50%" style="stop-color:#2DC5E2;stop-opacity: 1"/>
<stop offset="58.71220667556389%" style="stop-color:#1D83ED;stop-opacity: 1"/>
<stop offset="66.7194208306879%" style="stop-color:#4936F1;stop-opacity: 1"/>
<stop offset="78.46333492486971%" style="stop-color:#AE0DF7;stop-opacity: 1"/>
<stop offset="89.85137283437939%" style="stop-color:#FB06CF;stop-opacity: 1"/>
<stop offset="100%" style="stop-color:#FF0008;stop-opacity: 1"/>
</linearGradient>
<path style="stroke: none; stroke-width: 1; stroke-dasharray: none; stroke-linecap: butt; stroke-dashoffset: 0; stroke-linejoin: miter; stroke-miterlimit: 4; fill: url(#SVGID_1275); fill-rule: nonzero; opacity: 1;" vector-effect="non-scaling-stroke"  transform=" translate(-204, -198.49)" d="M 167.43942 131.58145 C 172.61322 135.58686 177.55102000000002 139.88808 182.2281 144.46355 C 182.24195 144.43883 182.25579000000002 144.41409 182.26961 144.38935 C 184.68913 145.95767 186.91035 147.8125 188.88501 149.91355000000001 C 195.84141 141.21805 208.45841 136.81915 226.83830999999998 136.81915 C 243.61550999999997 136.84188 256.92588 140.54742000000002 266.76941 147.93575 C 277.95421 156.21068000000002 283.48978 168.40712000000002 283.37611 184.52505000000002 L 283.37611 262.75045 L 245.86611 262.75045 L 245.86611 188.85575 C 245.86611 173.44255 239.52351 165.70185 226.73601 165.70185 C 213.94851 165.70185 207.60591 173.44255 207.60591 188.85575 L 207.60591 262.75045 L 170.09591 262.75045 L 170.09591 188.85575 C 170.09591 178.20877000000002 167.11861 171.43228 161.1966 167.97237 C 152.90614 173.64119000000002 143.48559 177.23964 133.37365 178.67701000000002 C 132.48281 181.99353000000002 132.06184 185.41918 132.12348 188.85370000000003 L 132.12348 262.74840000000006 L 94.64758 262.74840000000006 L 94.64758 184.59120000000007 C 94.64082 181.21425000000008 94.91749 177.84277000000006 95.47461 174.51227000000006 C 94.49568 167.15432000000007 94.30596 159.71272000000005 94.90872 152.31425000000007 C 84.57642 152.28015000000008 73.73262 151.76865000000006 63.50262000000001 151.39355000000006 L 56.40982000000001 151.63225000000006 C 55.50950000000001 162.25862000000006 55.33859000000001 172.93421000000006 55.89832000000001 183.58395000000004 C 60.70642000000001 201.21365000000003 59.99032000000001 215.05825000000004 59.99032000000001 232.10825000000006 C 54.26152000000001 218.26365000000004 47.44152000000001 203.19145000000006 54.26152000000001 184.36825000000005 L 54.26152000000001 180.00345000000004 C 53.736030000000014 170.54664000000005 53.906990000000015 161.06398000000004 54.77302000000001 151.63225000000006 L 49.14652000000001 151.59815000000006 L 48.63502000000001 149.96135000000007 C 103.60422000000001 117.32765000000006 140.90962000000002 108.80265000000006 204.60842000000002 102.22135000000006 L 205.08582 103.89225000000006 z M 370.7053 133.85851 C 389.96013000000005 133.81166 406.06905 148.46456 407.84106 167.63773 C 409.61307000000005 186.8109 396.46256000000005 204.168 377.5253 207.65091 C 372.84918 258.56503 347.64095000000003 305.37951 307.70821 337.30897000000004 C 267.77547 369.23844 216.562 383.52932000000004 165.8666 376.88921000000005 C 158.01613 392.11308 140.76406 399.98374000000007 124.1208 395.93429000000003 C 107.47755000000001 391.88484000000005 95.76987 376.968 95.7911 359.83921000000004 C 95.82703 357.90566 96.02091 355.97828000000004 96.3708 354.07631000000003 C 44.267790000000005 324.82019 9.08899000000001 272.62700000000007 1.5218399999999974 213.35321000000005 C -6.045310000000002 154.07942000000006 14.892469999999998 94.72213000000005 57.974199999999996 53.314310000000035 C 49.74880999999999 36.44573000000003 55.42885999999999 16.09114000000003 71.20012 5.918940000000035 C 86.97138 -4.253259999999965 107.85683 -1.0329799999999656 119.83160000000001 13.417310000000036 C 168.89239 -6.103829999999963 223.88587 -4.1895899999999635 271.47056 18.695640000000036 C 319.05525 41.58087000000003 354.88301 83.34591000000005 370.26199999999994 133.85851000000002 z M 189.2933 362.36261 C 277.93733 362.209 352.16868 295.17272 361.3278 207.00301000000002 C 346.36321000000004 203.06126 335.42742000000004 190.23013000000003 333.90717 174.82996000000003 C 332.38692000000003 159.42979000000003 340.60277 144.70808000000002 354.50780000000003 137.91641000000004 C 340.38508 92.17644000000004 307.89494 54.35933000000004 264.80499000000003 33.506230000000045 C 221.71504000000004 12.653120000000044 171.89854000000003 10.638470000000044 127.26540000000003 27.943910000000045 C 128.11047000000002 30.999470000000045 128.55747000000002 34.15137000000004 128.59530000000004 37.32141000000004 C 128.52016000000003 57.833660000000044 111.87049000000003 74.42235000000005 91.35810000000004 74.42221000000004 C 82.79510000000003 74.39317000000004 74.51038000000004 71.37835000000004 67.93140000000004 65.89721000000003 C 29.355510000000038 103.64357000000004 10.65510000000004 157.26039000000003 17.38894000000004 210.80983000000003 C 24.12278000000004 264.35927000000004 55.51569000000004 311.67685000000006 102.23600000000005 338.69721000000004 C 111.48657000000004 325.28147 128.38581000000005 319.43914000000007 143.94696000000005 324.27709000000004 C 159.50811000000004 329.11504 170.11583000000005 343.50925000000007 170.12910000000005 359.80511 C 170.12910000000005 360.28251 170.12910000000005 360.72581 170.12910000000005 361.20321 C 176.49062000000006 361.94185 182.88905000000005 362.31756 189.29330000000004 362.32851 z" stroke-linecap="round" />
</g>
</svg>