<?xml version="1.0" encoding="UTF-8" standalone="no" ?>
<!DOCTYPE svg PUBLIC "-//W3C//DTD SVG 1.1//EN" "http://www.w3.org/Graphics/SVG/1.1/DTD/svg11.dtd">
<svg xmlns="http://www.w3.org/2000/svg" xmlns:xlink="http://www.w3.org/1999/xlink" version="1.1" width="24" height="24" viewBox="0 0 500 500" xml:space="preserve">
<desc>Created with Fabric.js 4.6.0</desc>
<defs>
</defs>
<g transform="matrix(2.23 0 0 2.23 249.56 249.5)" id="oiRXAXm6vGpmNl15ioXTO"  >
<path style="stroke: none; stroke-width: 1; stroke-dasharray: none; stroke-linecap: butt; stroke-dashoffset: 0; stroke-linejoin: miter; stroke-miterlimit: 4; fill: rgb(0,0,0); fill-rule: nonzero; opacity: 1;" vector-effect="non-scaling-stroke"  transform=" translate(0, 0)" d="M -5.21518 -110.83833 C -2.27328 -111.55152 1.5601099999999999 -111.59609 4.5465800000000005 -110.97205 C 12.881960000000001 -109.23366 20.058410000000002 -102.0572 21.79681 -93.72182 C 22.10883 -92.11715 22.28713 -80.30498 22.28713 -56.85891999999999 L 22.28713 -22.31387999999999 L 56.832170000000005 -22.31387999999999 C 80.27822 -22.31387999999999 92.0904 -22.13557999999999 93.69507000000002 -21.82355999999999 C 103.76885000000001 -19.72856999999999 111.43562000000001 -10.27882999999999 111.43562000000001 -0.02674999999998917 C 111.43562000000001 10.22533000000001 103.76885000000001 19.675070000000012 93.69507000000002 21.77006000000001 C 92.09040000000002 22.082080000000012 80.27823000000001 22.260380000000012 56.83217000000001 22.260380000000012 L 22.287130000000012 22.260380000000012 L 22.287130000000012 56.80542000000001 C 22.287130000000012 80.25147000000001 22.10883000000001 92.06365000000001 21.79681000000001 93.66832000000002 C 19.701820000000012 103.74210000000002 10.252080000000012 111.40887000000002 1.0658141036401503e-14 111.40887000000002 C -10.252079999999989 111.40887000000002 -19.70181999999999 103.74210000000002 -21.79680999999999 93.66832000000002 C -22.10882999999999 92.06365000000002 -22.28712999999999 80.25148000000002 -22.28712999999999 56.80542000000002 L -22.28712999999999 22.26038000000002 L -56.83216999999999 22.26038000000002 C -80.27821999999999 22.26038000000002 -92.09039999999999 22.08208000000002 -93.69506999999999 21.77006000000002 C -103.76884999999999 19.67507000000002 -111.43561999999999 10.22533000000002 -111.43561999999999 -0.026749999999982066 C -111.43561999999999 -10.278829999999981 -103.76884999999999 -19.728569999999984 -93.69506999999999 -21.823559999999983 C -92.09039999999999 -22.135579999999983 -80.27822999999998 -22.313879999999983 -56.832169999999984 -22.313879999999983 L -22.287129999999983 -22.313879999999983 L -22.287129999999983 -56.85891999999998 C -22.287129999999983 -80.30496999999998 -22.108829999999983 -92.11714999999998 -21.796809999999983 -93.72181999999998 C -20.102989999999984 -101.83432999999998 -13.283129999999982 -108.87705999999997 -5.215189999999982 -110.83832999999998 z" stroke-linecap="round" />
</g>
</svg>