<?xml version="1.0" encoding="UTF-8"?>
<svg xmlns="http://www.w3.org/2000/svg" xmlns:xlink="http://www.w3.org/1999/xlink" width="18px" height="18px" viewBox="0 0 18 18" version="1.1">
<g id="surface1">
<path style=" stroke:none;fill-rule:nonzero;fill:rgb(97.254902%,50.196078%,19.215686%);fill-opacity:1;" d="M 18 9.421875 C 18 10.050781 17.847656 10.632812 17.546875 11.167969 C 17.242188 11.703125 16.839844 12.121094 16.328125 12.414062 C 16.34375 12.507812 16.351562 12.65625 16.351562 12.855469 C 16.351562 13.808594 16.03125 14.617188 15.398438 15.285156 C 14.761719 15.957031 13.996094 16.292969 13.097656 16.292969 C 12.699219 16.292969 12.316406 16.21875 11.953125 16.070312 C 11.671875 16.648438 11.265625 17.109375 10.738281 17.464844 C 10.210938 17.824219 9.628906 18 9 18 C 8.355469 18 7.773438 17.828125 7.253906 17.476562 C 6.730469 17.128906 6.328125 16.660156 6.046875 16.070312 C 5.683594 16.21875 5.304688 16.292969 4.902344 16.292969 C 4.003906 16.292969 3.234375 15.957031 2.589844 15.285156 C 1.949219 14.617188 1.628906 13.804688 1.628906 12.855469 C 1.628906 12.75 1.640625 12.601562 1.667969 12.414062 C 1.15625 12.117188 0.753906 11.703125 0.449219 11.167969 C 0.152344 10.632812 0 10.050781 0 9.421875 C 0 8.753906 0.167969 8.140625 0.503906 7.582031 C 0.835938 7.027344 1.285156 6.617188 1.847656 6.347656 C 1.703125 5.949219 1.628906 5.542969 1.628906 5.144531 C 1.628906 4.195312 1.949219 3.382812 2.589844 2.714844 C 3.234375 2.046875 4.003906 1.707031 4.902344 1.707031 C 5.300781 1.707031 5.683594 1.78125 6.046875 1.929688 C 6.328125 1.351562 6.734375 0.890625 7.261719 0.535156 C 7.789062 0.179688 8.371094 0 9 0 C 9.628906 0 10.210938 0.179688 10.738281 0.53125 C 11.265625 0.886719 11.671875 1.351562 11.953125 1.925781 C 12.316406 1.777344 12.695312 1.703125 13.097656 1.703125 C 13.996094 1.703125 14.761719 2.039062 15.398438 2.710938 C 16.035156 3.382812 16.351562 4.191406 16.351562 5.140625 C 16.351562 5.582031 16.285156 5.984375 16.152344 6.34375 C 16.714844 6.613281 17.164062 7.023438 17.496094 7.578125 C 17.832031 8.140625 18 8.753906 18 9.421875 Z M 18 9.421875 "/>
<path style=" stroke:none;fill-rule:nonzero;fill:rgb(100%,100%,100%);fill-opacity:1;" d="M 8.640625 11.996094 L 12.355469 6.429688 C 12.453125 6.28125 12.480469 6.121094 12.449219 5.949219 C 12.414062 5.777344 12.324219 5.636719 12.175781 5.546875 C 12.03125 5.453125 11.867188 5.421875 11.695312 5.445312 C 11.519531 5.472656 11.378906 5.558594 11.273438 5.707031 L 8 10.628906 L 6.492188 9.121094 C 6.359375 8.988281 6.203125 8.925781 6.03125 8.933594 C 5.855469 8.941406 5.707031 9.003906 5.570312 9.121094 C 5.453125 9.242188 5.390625 9.394531 5.390625 9.574219 C 5.390625 9.753906 5.453125 9.90625 5.570312 10.03125 L 7.640625 12.101562 L 7.746094 12.179688 C 7.863281 12.261719 7.988281 12.300781 8.105469 12.300781 C 8.34375 12.296875 8.519531 12.199219 8.640625 11.996094 Z M 8.640625 11.996094 "/>
</g>
</svg>
