<?xml version="1.0" encoding="utf-8"?>
<svg viewBox="0 0 500 500" xmlns="http://www.w3.org/2000/svg">
  <path style="fill: rgb(241, 127, 33);" d="M 378.692 389.183 L 378.692 223.533 C 378.692 188.882 364.324 171.556 335.8 171.556 C 307.065 171.556 292.909 188.882 292.909 223.533 L 292.909 389.183 L 208.605 389.183 L 208.605 223.533 C 208.605 188.882 194.448 171.556 166.347 171.556 C 137.823 171.556 123.455 188.882 123.455 223.533 L 123.455 389.183 L 38.94 389.183 L 38.94 213.602 C 38.94 177.472 51.406 150.004 76.549 131.411 C 98.735 114.931 128.526 106.479 166.136 106.479 C 204.379 106.479 232.48 116.198 250.44 135.848 C 266.075 116.198 294.388 106.479 335.589 106.479 C 373.199 106.479 403.202 114.719 425.176 131.411 C 450.319 150.004 462.785 177.261 462.785 213.602 L 462.785 389.183 L 378.692 389.183 Z"/>
</svg>