<?xml version="1.0" encoding="UTF-8" standalone="no" ?>
<!DOCTYPE svg PUBLIC "-//W3C//DTD SVG 1.1//EN" "http://www.w3.org/Graphics/SVG/1.1/DTD/svg11.dtd">
<svg xmlns="http://www.w3.org/2000/svg" xmlns:xlink="http://www.w3.org/1999/xlink" version="1.1" width="640" height="640" viewBox="0 0 640 640" xml:space="preserve">
<desc>Created with Fabric.js 4.6.0</desc>
<defs>
</defs>
<g transform="matrix(0.67 0 0 0.67 320 318.97)" id="mATuZ-2GeB2lqSTEOm0qj"  >
<path style="stroke: none; stroke-width: 1; stroke-dasharray: none; stroke-linecap: butt; stroke-dashoffset: 0; stroke-linejoin: miter; stroke-miterlimit: 4; fill: rgb(0,0,0); fill-rule: nonzero; opacity: 1;" vector-effect="non-scaling-stroke"  transform=" translate(0, 0)" d="M -16.472 462.44246 C -16.472 462.44246 -16.471 462.44246 -16.471 462.44446 C -16.471 462.44446 -12.41536 464.69067 -10.4178 465.79702 L -10.4178 465.79702 C -3.9358199999999997 469.38705999999996 3.9378200000000003 469.38705999999996 10.419799999999999 465.79702 C 12.417359999999999 464.69068 16.473 462.44446 16.473 462.44446 C 16.473 462.44446 16.473 462.44446 16.473 462.44246 L 263.424 325.67146 L 410.23019999999997 244.36327000000003 L 410.23019999999997 244.36327000000003 C 417.24258 240.47948000000002 421.594 233.09522000000004 421.594 225.07916000000003 L 421.594 218.03246000000004 L 421.594 -261.98753999999997 L 421.594 -269.14925999999997 L 421.594 -269.14925999999997 C 421.594 -278.0863 416.38265 -286.20268999999996 408.25629 -289.92197999999996 L 401.74399999999997 -292.90254 L 354.63899999999995 -314.46254 L 34.57782999999995 -460.95249 L 34.57782999999995 -460.95249 C 12.621189999999949 -471.00190000000003 -12.621200000000051 -471.00190000000003 -34.57784000000005 -460.95249 L -354.63901000000004 -314.46254 L -401.74401000000006 -292.90254 L -408.25630000000007 -289.92197999999996 L -408.25630000000007 -289.92197999999996 C -416.38265000000007 -286.20268999999996 -421.5940100000001 -278.08629999999994 -421.5940100000001 -269.14925999999997 L -421.5940100000001 -261.98753999999997 L -421.5940100000001 218.03246000000001 L -421.5940100000001 225.07920000000001 L -421.5940100000001 225.07920000000001 C -421.5940100000001 233.09523000000002 -417.24259000000006 240.47946000000002 -410.23023000000006 244.36321 L -263.4230100000001 325.67145 z M 112.164 -148.30754 L 0 -86.18653999999998 L -112.163 -148.30754 L -312.205 -259.10054 L 0 -401.99454000000003 L 312.205 -259.10054 z M 34 375.00246 L 34 -27.284539999999993 L 353.594 -204.28954 L 353.594 197.99746 z M -34 -27.28454 L -34 375.00346 L -353.593 197.99646 L -353.593 -204.29053999999996 z" stroke-linecap="round" />
</g>
</svg>