<?xml version="1.0" encoding="UTF-8" standalone="no" ?>
<!DOCTYPE svg PUBLIC "-//W3C//DTD SVG 1.1//EN" "http://www.w3.org/Graphics/SVG/1.1/DTD/svg11.dtd">
<svg
  xmlns="http://www.w3.org/2000/svg"
  xmlns:xlink="http://www.w3.org/1999/xlink"
  version="1.1"
  width="24"
  height="24"
  viewBox="0 0 24 24"
  xml:space="preserve"
>
  <desc>Created with Fabric.js 5.3.0</desc>
  <defs></defs>
  <g
    transform="matrix(1 0 0 1 12.681752358 4.0267048118)"
    id="QoTbJtdn2XONJY89rJ7IM"
    clip-path="url(#CLIPPATH_76)"
  >
    <clipPath id="CLIPPATH_76">
      <rect id="clip0_3178_875" x="-12" y="-12" rx="0" ry="0" width="24" height="24" />
    </clipPath>
    <path
      style="
        stroke: none;
        stroke-width: 1;
        stroke-dasharray: none;
        stroke-linecap: butt;
        stroke-dashoffset: 0;
        stroke-linejoin: miter;
        stroke-miterlimit: 4;

        fill-rule: nonzero;
        opacity: 1;
      "
      transform=" translate(0, 0)"
      d="M -1.33495 -2.17158 C -1.4913500000000002 -2.0503 -1.63625 -1.70197 -1.61535 -1.4963000000000002 C -1.60085 -1.3771700000000002 -1.3786500000000002 -0.7579600000000002 -0.93005 0.3988099999999999 L -0.2644500000000001 2.11451 L -0.11585000000000006 2.2275300000000002 C -0.03475000000000006 2.2903800000000003 0.11984999999999993 2.36112 0.22674999999999995 2.3875400000000004 C 0.39174999999999993 2.4276800000000005 0.46695 2.4171000000000005 0.67875 2.3372300000000004 C 0.89055 2.2573700000000003 1.3339699999999999 2.0608000000000004 1.43087 1.9219200000000003 C 1.49347 1.8316000000000003 1.56217 1.6766400000000004 1.5811700000000002 1.5760400000000003 L 1.6173700000000002 1.3933100000000003 L 0.9293700000000003 -0.4162499999999998 L 0.22675000000000023 -2.1715799999999996 L 0.07815000000000022 -2.28461 C -0.21524999999999977 -2.51211 -1.03595 -2.4044399999999997 -1.3349499999999999 -2.1715799999999996 z"
      stroke-linecap="round"
    />
  </g>
  <g
    transform="matrix(1 0 0 1 9.4184513498 6.0213067611)"
    id="z1w3Cvc84bIj-HDbQd87l"
    clip-path="url(#CLIPPATH_77)"
  >
    <clipPath id="CLIPPATH_77">
      <rect id="clip0_3178_875" x="-12" y="-12" rx="0" ry="0" width="24" height="24" />
    </clipPath>
    <path
      style="
        stroke: none;
        stroke-width: 1;
        stroke-dasharray: none;
        stroke-linecap: butt;
        stroke-dashoffset: 0;
        stroke-linejoin: miter;
        stroke-miterlimit: 4;
        fill-rule: nonzero;
        opacity: 1;
      "
      transform=" translate(0, 0)"
      d="M -0.91914 -1.40131 C -1.2644199999999999 -1.1658300000000001 -1.68181 -0.5672100000000001 -1.5336699999999999 -0.18849000000000005 C -1.4716999999999998 -0.03005000000000005 -1.34289 0.11667999999999995 -0.7761699999999999 0.6754899999999999 C -0.020549999999999957 1.4205699999999999 0.17056000000000004 1.544 0.49431000000000014 1.51592 C 0.8717500000000001 1.4766299999999999 1.4658800000000003 0.99808 1.5432800000000002 0.6368799999999999 C 1.5814800000000002 0.4719899999999999 1.5712800000000002 0.4004599999999999 1.4842800000000003 0.18937999999999988 C 1.3881800000000002 -0.044900000000000106 1.3306800000000003 -0.11199000000000014 0.7270100000000003 -0.6968500000000001 C 0.36908000000000024 -1.0413800000000002 0.018710000000000226 -1.3666 -0.05219999999999969 -1.4109500000000001 C -0.2802699999999997 -1.5604200000000001 -0.6887399999999997 -1.5539500000000002 -0.9191399999999997 -1.40131 z"
      stroke-linecap="round"
    />
  </g>
  <g
    transform="matrix(1 0 0 1 16.4733958822 3.6889761883)"
    id="IWpmYdKjrsmQCkuu2Dr5U"
    clip-path="url(#CLIPPATH_78)"
  >
    <clipPath id="CLIPPATH_78">
      <rect id="clip0_3178_875" x="-12" y="-12" rx="0" ry="0" width="24" height="24" />
    </clipPath>
    <path
      style="
        stroke: none;
        stroke-width: 1;
        stroke-dasharray: none;
        stroke-linecap: butt;
        stroke-dashoffset: 0;
        stroke-linejoin: miter;
        stroke-miterlimit: 4;
        fill-rule: nonzero;
        opacity: 1;
      "
      transform=" translate(0, 0)"
      d="M -0.5525 -1.5423 C -0.7251 -1.42456 -0.8518 -1.25759 -0.8929 -1.10043 C -0.9155 -1.02112 -0.9544 -0.55025 -0.9859 -0.06007000000000007 C -1.0363 0.7694799999999999 -1.0333 0.8569599999999999 -0.945 1.09415 C -0.8656999999999999 1.30815 -0.8245 1.36802 -0.6835 1.46592 C -0.3794 1.68438 0.31115000000000004 1.7094999999999998 0.6190500000000001 1.49244 C 0.8793500000000001 1.30205 0.9373500000000001 1.08541 0.9916500000000001 0.03737999999999997 C 1.0337500000000002 -0.74478 1.0280500000000001 -0.94199 0.9660500000000002 -1.10043 C 0.8859500000000002 -1.30525 0.6879500000000002 -1.51471 0.5156500000000002 -1.57871 C 0.27065000000000017 -1.6687 -0.3618999999999999 -1.6711900000000002 -0.5524999999999998 -1.5423 z"
      stroke-linecap="round"
    />
  </g>
  <g
    transform="matrix(1 0 0 1 11.8221107868 14.2409708183)"
    id="hbaSnR6iYWFkstQ1cIABp"
    clip-path="url(#CLIPPATH_80)"
  >
    <clipPath id="CLIPPATH_80">
      <rect id="clip0_3178_875" x="-12" y="-12" rx="0" ry="0" width="24" height="24" />
    </clipPath>
    <path
      style="
        stroke: none;
        stroke-width: 1;
        stroke-dasharray: none;
        stroke-linecap: butt;
        stroke-dashoffset: 0;
        stroke-linejoin: miter;
        stroke-miterlimit: 4;
        fill-rule: nonzero;
        opacity: 1;
      "
      transform=" translate(0, 0)"
      d="M -9.68721 -2.64447 C -10.3771 -2.24327 -10.85 -1.53447 -10.92683 -0.77247 C -11.077530000000001 0.7021299999999999 -9.83318 1.9927300000000001 -8.30156 1.94783 C -8.1224 1.94393 -7.97633 1.94773 -7.97024 1.96313 C -7.965660000000001 1.97463 -7.95418 2.1286300000000002 -7.948440000000001 2.30233 C -7.922510000000001 2.94773 -7.796880000000001 3.46883 -7.48894 4.24423 C -7.257230000000001 4.82763 -7.16065 5.02533 -6.949380000000001 5.35253 C -6.209060000000001 6.48863 -5.198310000000001 7.35033 -3.9645500000000005 7.8976299999999995 C -2.6995100000000005 8.45543 -1.3528100000000003 8.62753 0.024589999999999446 8.41043 C 0.7046899999999995 8.30283 1.7856899999999996 7.90823 2.3641899999999993 7.55643 C 4.712289999999999 6.13233 5.928289999999999 3.55253 5.4698899999999995 0.9423300000000001 C 5.425789999999999 0.6947300000000001 5.404789999999999 0.4826300000000001 5.4214899999999995 0.4677300000000001 C 5.44999 0.4485300000000001 6.60229 -0.18736999999999993 9.40269 -1.72377 C 10.003689999999999 -2.05307 10.55739 -2.3650700000000002 10.63109 -2.41837 C 10.80859 -2.54027 10.95949 -2.87667 10.93699 -3.09257 C 10.92349 -3.20627 10.60149 -4.05117 9.925889999999999 -5.72957 L 8.933789999999998 -8.19338 L 8.764789999999998 -8.311879999999999 C 8.672089999999997 -8.374719999999998 8.513489999999997 -8.44427 8.410789999999999 -8.463929999999998 L 8.224289999999998 -8.501329999999998 L 5.718989999999998 -7.586839999999998 L 3.213689999999998 -6.672359999999998 L 0.5702899999999977 -5.707469999999997 L -1.8955600000000024 -4.807389999999997 C -4.3061700000000025 -3.927469999999997 -4.3717200000000025 -3.899169999999997 -4.768230000000003 -3.657769999999997 C -5.2818400000000025 -3.347169999999997 -5.788000000000003 -2.938269999999997 -6.209700000000002 -2.498669999999997 C -6.387960000000002 -2.310569999999997 -6.541380000000002 -2.1622699999999972 -6.552320000000003 -2.167069999999997 C -6.559310000000003 -2.1732699999999974 -6.657230000000003 -2.2605699999999973 -6.773080000000003 -2.358969999999997 C -7.221610000000003 -2.7489699999999972 -7.917080000000003 -2.987369999999997 -8.532560000000004 -2.956069999999997 C -8.905130000000003 -2.9387699999999968 -9.419010000000004 -2.799569999999997 -9.687210000000004 -2.644469999999997 z M -8.492 -1.31837 C -8.15224 -1.35017 -7.746760000000001 -1.10257 -7.619340000000001 -0.79317 C -7.289160000000001 0.02682999999999991 -8.394660000000002 0.6897300000000001 -9.023970000000002 0.049229999999999996 C -9.343640000000002 -0.27797 -9.309310000000002 -0.83987 -8.947500000000002 -1.13457 C -8.784040000000001 -1.2689700000000002 -8.706660000000001 -1.3015700000000001 -8.492 -1.31837 z M 5.03579 -5.21925 L 6.566590000000001 -5.77802 L 7.66497 -6.15743 L 8.14799 -4.90074 C 8.49549 -4.02557 8.70204 -3.5677 8.69414 -3.5648 C 8.682340000000002 -3.5604999999999998 7.672090000000001 -3.09626 6.242090000000001 -2.30616 C 3.9256900000000012 -1.0299600000000002 3.270130000000001 -0.7859400000000003 3.173530000000001 -0.6539400000000002 C 2.9977300000000007 -0.4139400000000002 3.148530000000001 0.11994999999999978 3.278330000000001 0.5604499999999999 C 3.484430000000001 1.24995 3.568130000000001 1.9840499999999999 3.512530000000001 2.5493499999999996 C 3.430930000000001 3.3218499999999995 3.084600000000001 3.9362399999999997 2.6150000000000007 4.5735399999999995 C 1.3722600000000007 6.569799999999999 -2.1036299999999994 7.372739999999999 -4.38312 5.352539999999999 C -4.9706399999999995 4.828639999999999 -5.36205 4.26394 -5.67151 3.4846399999999997 C -5.91085 2.88204 -5.98394 2.56154 -6.017659999999999 1.9761399999999998 C -6.06171 1.2055399999999998 -6.00407 0.7815399999999997 -5.67151 0.04923999999999973 C -5.1994299999999996 -0.9800600000000004 -4.3816999999999995 -1.5164200000000003 -3.3397699999999997 -2.0550200000000003 C -3.2757499999999995 -2.08712 -2.4520699999999995 -2.4560200000000005 -1.4712099999999997 -2.8185200000000004 L 0.024590000000000334 -3.34046 z"
      stroke-linecap="round"
    />
  </g>
  <g
    transform="matrix(0.9392096949 0 0 0.9392096949 10.5643836404 16.2067946077)"
    id="2Qw3DWnD2HTmYdallY2VT"
    clip-path="url(#CLIPPATH_83)"
  >
    <clipPath id="CLIPPATH_83">
      <rect id="clip0_3178_875" x="-12" y="-12" rx="0" ry="0" width="24" height="24" />
    </clipPath>
    <path
      style="
        stroke: none;
        stroke-width: 1;
        stroke-dasharray: none;
        stroke-linecap: butt;
        stroke-dashoffset: 0;
        stroke-linejoin: miter;
        stroke-miterlimit: 4;
        fill-rule: nonzero;
        opacity: 1;
      "
      transform=" translate(-10.5794121602, -16.1725567922)"
      d="M 8.79552 13.3585 C 7.776 14.0057 7.18908 15.0666 7.22311 16.2109 C 7.27319 17.7598 8.35755 19.0403 9.90584 19.3805 C 10.5644 19.525 11.1047 19.4837 11.7862 19.2311 C 12.6713 18.9031 13.27 18.35 13.6439 17.5226 C 14.0177 16.6953 14.0348 15.8853 13.6912 15.0147 C 13.4267 14.3444 13.0973 13.919 12.5489 13.5306 C 11.838 13.0258 11.0459 12.8159 10.1408 12.8997 C 9.80336 12.932 9.08299 13.1769 8.79552 13.3585 Z M 10.6698 14.5361 C 11.09 14.5658 11.4053 14.7051 11.7183 14.9864 C 11.9649 15.213 11.9864 15.2448 12.1247 15.5953 C 12.263 15.9459 12.2689 15.9834 12.2412 16.3116 C 12.2033 16.7274 12.0613 17.0273 11.764 17.3318 C 11.5692 17.5321 11.515 17.5654 11.1782 17.6902 C 10.8414 17.8151 10.7781 17.8253 10.4951 17.8021 C 10.064 17.7676 9.7517 17.636 9.43714 17.3508 C 9.19063 17.1243 9.16911 17.0925 9.03231 16.7458 C 8.90006 16.4107 8.88901 16.3485 8.90986 16.0714 C 8.93731 15.686 9.06629 15.3644 9.30074 15.1053 C 9.54237 14.8303 9.69949 14.7279 10.062 14.6112 C 10.3054 14.5343 10.439 14.5201 10.6698 14.5361 Z"
      stroke-linecap="round"
    />
  </g>
</svg>
