<?xml version="1.0" encoding="utf-8"?>
<!-- Generator: Adobe Illustrator 25.2.2, SVG Export Plug-In . SVG Version: 6.00 Build 0)  -->
<svg version="1.1" id="Layer_1" xmlns="http://www.w3.org/2000/svg" xmlns:xlink="http://www.w3.org/1999/xlink" x="0px" y="0px"
	 viewBox="0 0 4553.8 849.9" style="enable-background:new 0 0 4553.8 849.9;" xml:space="preserve">
<g>
	<path style="fill:#424343;stroke:#424343;stroke-width:17.005;stroke-miterlimit:10;" d="M3231.8,257.7c0-17.7,15.2-32.9,32.9-32.9
		h9.3c15.2,0,24.5,7.6,33.7,19.4l358.3,456.9V256c0-17.7,14.3-32.9,32.9-32.9c17.7,0,32,15.2,32,32.9v532.8
		c0,17.7-12.6,31.2-30.3,31.2h-3.4c-14.3,0-24.5-8.4-34.6-20.2l-365.9-467.9v456.9c0,17.7-14.3,32.9-32.9,32.9
		c-17.7,0-32-15.2-32-32.9V257.7z"/>
	<path style="fill:#424343;stroke:#424343;stroke-width:17.005;stroke-miterlimit:10;" d="M4026.8,821.6
		c-119.7,0-217.5-91.9-217.5-226.8v-1.7c0-125.6,88.5-226.8,209.1-226.8c129,0,202.3,105.4,202.3,220.9c0,17.7-14.3,30.4-30.3,30.4
		H3875c9.3,94.4,75.9,147.5,153.4,147.5c54,0,93.6-21.1,125.6-50.6c5.1-4.2,11-7.6,18.5-7.6c16,0,28.7,12.6,28.7,27.8
		c0,7.6-3.4,15.2-10.1,21.1C4149.8,795.5,4101,821.6,4026.8,821.6z M4155.7,569.5c-6.7-79.2-52.3-148.4-139.1-148.4
		c-75.9,0-133.2,63.2-141.6,148.4H4155.7z"/>
	<path style="fill:#424343;stroke:#424343;stroke-width:17.005;stroke-miterlimit:10;" d="M4307.5,696v-263h-35.4
		c-15.2,0-28.7-13.5-28.7-28.7c0-16,13.5-28.7,28.7-28.7h35.4V272.8c0-17.7,13.5-32.9,32-32.9c17.7,0,32.9,15.2,32.9,32.9v102.9h113
		c16,0,29.5,13.5,29.5,28.7c0,16-13.5,28.7-29.5,28.7h-113v254.6c0,53.1,29.5,72.5,73.3,72.5c22.8,0,34.6-5.9,39.6-5.9
		c15.2,0,27.8,12.6,27.8,27.8c0,11.8-7.6,21.1-18.5,25.3c-18.5,7.6-38.8,11.8-64.1,11.8C4360.6,819.1,4307.5,784.5,4307.5,696z"/>
</g>
<g>
	<path style="fill:#F17F21;" d="M782.8,820.8V545.6c0-57.5-23.8-86.3-71.3-86.3c-47.6,0-71.3,28.8-71.3,86.3v275.2H500.1V545.6
		c0-57.5-23.4-86.3-70.1-86.3c-47.5,0-71.3,28.8-71.3,86.3v275.2H218.6V529.4c0-60.1,20.8-105.5,62.5-136.3
		c36.7-27.5,86.3-41.3,148.9-41.3c63.4,0,110.1,16.3,140.1,48.8c25.8-32.5,72.9-48.8,141.4-48.8c62.5,0,112.1,13.8,148.8,41.3
		c41.7,30.8,62.5,76.3,62.5,136.3v291.4H782.8z"/>
	<path style="fill:#F17F21;" d="M2499.9,819.6V33.4h140.2v786.2H2499.9z"/>
	<path style="fill:#F17F21;" d="M2321.2,819.6v-46.3c-12.5,16.7-33.8,30-63.8,40.1c-26.7,9.2-52.2,13.8-76.4,13.8
		c-66.8,0-120.4-22.9-160.8-68.9c-40.5-45.9-60.7-102.7-60.7-170.2c0-66.7,19.7-122.8,59.5-167.7c35.2-39.8,92.4-67.6,158.4-67.6
		c74.3,0,117.6,27.9,144,60.1V33.4h136.4v786.2H2321.2z M2321.2,557.9c0-25-11.9-49-35.7-72c-23.8-22.9-48.2-34.4-73.2-34.4
		c-35.9,0-64.3,14.6-85.1,43.8c-18.4,25.9-27.5,57.6-27.5,95.1c0,36.7,9.2,68,27.5,93.9c20.9,30.1,49.2,45.1,85.1,45.1
		c21.7,0,45.3-10.2,70.7-30.7c25.5-20.4,38.2-41.5,38.2-63.2V557.9z"/>
	<path style="fill:#F17F21;" d="M1695.3,832.1c-71,0-129.6-22.5-175.9-67.6c-46.3-45.1-69.5-103-69.5-174
		c0-70.9,23.2-128.9,69.5-174c46.3-45.1,104.9-67.6,175.9-67.6c70.9,0,129.8,22.5,176.5,67.6c46.7,45.1,70.1,103.1,70.1,174
		c0,71-23.4,129-70.1,174C1825.1,809.5,1766.2,832.1,1695.3,832.1z M1695.3,461.5c-33.8,0-59.8,12.8-77.9,38.4
		c-18.2,25.6-27.2,56-27.2,91.2c0,35.2,8.4,65,25.3,89.3c19.4,27.7,46,41.5,79.8,41.5c33.8,0,60.4-13.8,79.8-41.5
		c17.7-24.3,26.6-54.1,26.6-89.3c0-35.2-8.4-65-25.3-89.3C1756.9,474.9,1729.9,461.5,1695.3,461.5z"/>
	<path style="fill:#F17F21;" d="M1188.3,832.1c-70.9,0-129.6-22.5-175.9-67.6c-46.3-45.1-69.5-103-69.5-174
		c0-70.9,23.1-128.9,69.5-174c46.3-45.1,105-67.6,175.9-67.6c70.9,0,129.8,22.5,176.5,67.6c46.7,45.1,70.1,103.1,70.1,174
		c0,71-23.4,129-70.1,174C1318,809.5,1259.2,832.1,1188.3,832.1z M1188.3,461.5c-33.8,0-59.8,12.8-77.9,38.4
		c-18.1,25.6-27.2,56-27.2,91.2c0,35.2,8.4,65,25.3,89.3c19.4,27.7,46.1,41.5,79.8,41.5c33.8,0,60.4-13.8,79.8-41.5
		c17.7-24.3,26.6-54.1,26.6-89.3c0-35.2-8.5-65-25.3-89.3C1249.9,474.9,1222.9,461.5,1188.3,461.5z"/>
	<path style="fill:#F17F21;" d="M2806.2,633c3,33.4,46.4,105.1,117.7,105.1c69.4,0,102.3-40.1,103.9-56.3l147.7-1.2
		c-16.1,49.3-81.6,154-254.2,154c-71.8,0-137.5-22.3-184.6-67C2689.6,723,2666,664.8,2666,593c0-74.3,23.6-133.3,70.7-177.1
		c47.2-43.8,108.3-65.7,183.4-65.7c81.8,0,145.6,27.1,191.5,81.4c42.6,50.1,63.9,117.3,63.9,201.6H2806.2z M3035.3,546.6
		c-5.8-30.1-18.4-54.6-37.5-73.9c-21.7-20.9-46.8-31.3-75.1-31.3c-29.2,0-53.6,10-73.2,30c-19.6,20-32.7,45.1-39.4,75.1H3035.3z"/>
	<path style="fill:#333333;" d="M490.8,330.5L630,229l-1.8-6.2c-251,30.7-365.3,52.5-581.6,177.9l2,5.7l17.2,0.2
		c-1.6,17.3-4.3,60.1-0.8,124.4c-24,69.5-0.6,116.6,21.4,167.9c3.5-53.5,3.1-111.9-13.3-170C69.6,465,72.5,422.9,74,406.6l143.4,1.4
		c0,0-0.9,43.3,4.2,84.1c128.1,45,257-0.2,325.3-111.1C528,359.6,490.8,330.5,490.8,330.5z"/>
</g>
</svg>
