<?xml version="1.0" encoding="utf-8"?>
<svg preserveAspectRatio="xMidYMid slice" viewBox="0 0 500 500" xmlns="http://www.w3.org/2000/svg">
  <rect x="-3.688" y="-2.869" width="505.394" height="504.51" style="fill: rgb(216, 216, 216);"/>
  <g transform="matrix(1, 0, 0, 1, 60.907005, 130.749995)"/>
  <g transform="matrix(1, 0, 0, 1, -6.243223, 197.900223)">
    <path style="fill: rgb(188, 188, 188);" d="M 537.92 303.364 L 537.92 110.095 C 537.92 69.667 521.155 49.451 487.875 49.451 C 454.351 49.451 437.833 69.667 437.833 110.095 L 437.833 303.364 L 339.473 303.364 L 339.473 110.095 C 339.473 69.667 322.956 49.451 290.169 49.451 C 256.89 49.451 240.128 69.667 240.128 110.095 L 240.128 303.364 L 141.522 303.364 L 141.522 98.508 C 141.522 56.355 156.065 24.307 185.4 2.613 C 211.286 -16.615 246.043 -26.475 289.924 -26.475 C 334.543 -26.475 367.329 -15.135 388.285 7.791 C 406.526 -15.135 439.559 -26.475 487.63 -26.475 C 531.509 -26.475 566.516 -16.861 592.151 2.613 C 621.487 24.307 636.032 56.108 636.032 98.508 L 636.032 303.364 L 537.92 303.364 Z"/>
    <path style="fill: rgb(167, 166, 166);" d="M 332.817 -41.266 L 430.685 -112.756 L 429.452 -117.193 C 252.946 -95.5 172.581 -79.969 20.728 8.037 L 22.207 11.981 L 34.287 11.981 C 33.054 24.062 31.329 54.136 33.793 99.494 C 17.03 148.305 33.3 181.339 48.831 217.577 C 51.297 180.106 51.049 138.936 39.464 98.015 C 36.998 53.149 38.971 23.568 40.203 11.981 L 141.029 12.967 C 141.029 12.967 140.289 43.289 143.987 72.132 C 233.964 103.686 324.436 72.132 372.507 -6.014 C 358.948 -20.806 332.817 -41.266 332.817 -41.266 Z"/>
  </g>
</svg>