<svg width="73" height="72" viewBox="0 0 73 72" fill="none" xmlns="http://www.w3.org/2000/svg">
<path d="M54.5 39V60H12.5V18H27.56C27.71 15.87 28.22 13.86 29 12H12.5C9.2 12 6.5 14.7 6.5 18V60C6.5 63.3 9.2 66 12.5 66H54.5C57.8 66 60.5 63.3 60.5 60V45L54.5 39ZM50 54H17L25.25 43.41L31.13 50.49L39.38 39.87L50 54Z" fill="#F88012"/>
<path fill-rule="evenodd" clip-rule="evenodd" d="M58.6859 19.2094H52.1301V28.5077C52.1301 30.4285 50.4912 32 48.4881 32C46.4849 32 44.846 30.4285 44.846 28.5077V19.2094H38.3266C36.6877 19.2094 35.8864 17.3236 37.0519 16.241L47.2497 6.49764C47.9782 5.83412 49.1072 5.83412 49.8356 6.49764L59.9971 16.241C61.0897 17.3236 60.2884 19.2094 58.6859 19.2094Z" fill="#F88012"/>
</svg>
