<?xml version="1.0" encoding="UTF-8" standalone="no" ?>
<!DOCTYPE svg PUBLIC "-//W3C//DTD SVG 1.1//EN" "http://www.w3.org/Graphics/SVG/1.1/DTD/svg11.dtd">
<svg
  xmlns="http://www.w3.org/2000/svg"
  xmlns:xlink="http://www.w3.org/1999/xlink"
  version="1.1"
  width="24"
  height="24"
  viewBox="0 0 24 24"
  xml:space="preserve"
>
  <desc>Created with Fabric.js 5.3.0</desc>
  <defs></defs>
  <g
    transform="matrix(1.4101104421 0 0 1.4101104421 12.0048363955 11.9951636045)"
    id="YSij0ygjec_3GUDuWTtsj"
  >
    <path
      style="
        stroke: none;
        stroke-width: 1;
        stroke-dasharray: none;
        stroke-linecap: butt;
        stroke-dashoffset: 0;
        stroke-linejoin: miter;
        stroke-miterlimit: 4;
        fill-rule: nonzero;
        opacity: 1;
      "
      transform=" translate(0, 0)"
      d="M 0 -6.1 C 1.16 -6.1 2.1 -5.16 2.1 -3.9999999999999996 C 2.1 -2.84 1.1600000000000001 -1.8999999999999995 0 -1.8999999999999995 C -1.16 -1.8999999999999995 -2.1 -2.8399999999999994 -2.1 -3.9999999999999996 C -2.1 -5.159999999999999 -1.1600000000000001 -6.1 0 -6.1 M 0 2.9 C 2.97 2.9 6.1 4.359999999999999 6.1 5 L 6.1 6.1 L -6.1 6.1 L -6.1 5 C -6.1 4.36 -2.9699999999999998 2.9 0 2.9 M 0 -8 C -2.21 -8 -4 -6.21 -4 -4 C -4 -1.79 -2.21 0 0 0 C 2.21 0 4 -1.79 4 -4 C 4 -6.21 2.21 -8 0 -8 z M 0 1 C -2.67 1 -8 2.34 -8 5 L -8 8 L 8 8 L 8 5 C 8 2.34 2.67 1 0 1 z"
      stroke-linecap="round"
    />
  </g>
</svg>
