<?xml version="1.0" encoding="UTF-8" standalone="no" ?>
<!DOCTYPE svg PUBLIC "-//W3C//DTD SVG 1.1//EN" "http://www.w3.org/Graphics/SVG/1.1/DTD/svg11.dtd">
<svg xmlns="http://www.w3.org/2000/svg" xmlns:xlink="http://www.w3.org/1999/xlink" version="1.1" width="640" height="640" viewBox="0 0 640 640" xml:space="preserve">
<desc>Created with Fabric.js 5.3.0</desc>
<defs>
</defs>
<g transform="matrix(0.5405255829 0 0 0.5405255829 331.0099091697 319.1149742718)" id="GohxtnNu64noVV4HMTnfb"  >
<path style="stroke: none; stroke-width: 1; stroke-dasharray: none; stroke-linecap: butt; stroke-dashoffset: 0; stroke-linejoin: miter; stroke-miterlimit: 4; fill: rgb(167,167,167); fill-rule: nonzero; opacity: 1;" vector-effect="non-scaling-stroke"  transform=" translate(0, 0)" d="M -78.8 -26.7395 C -124.788 -26.7395 -162.95132999999998 -41.908500000000004 -193.29 -72.2465 C -223.628 -102.58517 -238.797 -140.74817000000002 -238.797 -186.7355 C -238.797 -232.7235 -223.628 -270.88417 -193.29 -301.2175 C -162.95132999999998 -331.55082999999996 -124.788 -346.7175 -78.8 -346.7175 C -32.81267 -346.7175 5.38767 -331.55082999999996 35.801 -301.2175 C 66.21367000000001 -270.88417 81.42 -232.72349999999997 81.42 -186.73549999999997 C 81.42 -140.74816999999996 66.21367000000001 -102.58516999999998 35.801 -72.24649999999997 C 5.3876700000000035 -41.90849999999997 -32.81267 -26.73949999999997 -78.8 -26.73949999999997 z M -405.464 307.4785 L -405.464 200.3045 C -405.464 175.44916999999998 -399.06167 153.1255 -386.257 133.3335 C -373.45300000000003 113.54082999999999 -356.38433 98.5915 -335.051 88.48549999999999 C -291.717 68.48549999999999 -248.78067 53.28149999999999 -206.242 42.873499999999986 C -163.70333 32.464829999999985 -121.21199999999999 27.260499999999986 -78.76799999999999 27.260499999999986 L -64.72099999999999 27.260499999999986 C -59.356329999999986 27.260499999999986 -54.63032999999999 27.482829999999986 -50.54299999999999 27.927499999999988 C -55.30632999999999 38.25616999999999 -59.483999999999995 49.888829999999984 -63.07599999999999 62.82549999999999 C -66.66799999999999 75.76283 -69.29467 89.21216999999999 -70.95599999999999 103.17349999999999 L -78.20499999999998 103.17349999999999 C -118.75432999999998 103.17349999999999 -157.57799999999997 107.77682999999999 -194.676 116.98349999999999 C -231.77467 126.19017 -267.44633 139.20049999999998 -301.691 156.0145 C -310.80832999999996 160.66049999999998 -317.75732999999997 167.0985 -322.53799999999995 175.3285 C -327.31933 183.55849999999998 -329.71 192.22916999999998 -329.71 201.3405 L -329.71 231.72449999999998 L -69.08699999999999 231.72449999999998 C -65.42499999999998 245.82582999999997 -60.249999999999986 259.38617 -53.56199999999999 272.40549999999996 C -46.87332999999999 285.42483 -39.521669999999986 297.11582999999996 -31.50699999999999 307.47849999999994 z M 182.196 346.7175 L 171.436 281.84049999999996 C 161.63867000000002 278.71982999999994 151.84367 274.5035 142.05100000000002 269.19149999999996 C 132.25900000000001 263.88016999999996 123.66000000000003 257.80182999999994 116.25400000000002 250.95649999999995 L 59.21800000000002 265.43449999999996 L 26.82700000000002 210.30449999999996 L 74.29100000000003 167.07949999999997 C 72.79767000000002 160.55282999999997 72.09100000000002 152.52016999999998 72.17100000000002 142.98149999999998 C 72.25100000000002 133.44283 72.95767000000002 125.46349999999998 74.29100000000003 119.04349999999998 L 26.827000000000027 75.57949999999998 L 59.218000000000025 20.688499999999983 L 116.25400000000002 35.007499999999986 C 123.66000000000003 28.268169999999987 132.25900000000001 22.216169999999984 142.05100000000002 16.851499999999987 C 151.84367 11.486829999999987 161.63867000000002 7.297169999999987 171.436 4.282499999999986 L 182.196 -60.75350000000002 L 249.87 -60.75350000000002 L 260.776 4.282499999999985 C 270.46667 7.297169999999985 280.248 11.529169999999985 290.12 16.978499999999983 C 299.992 22.427829999999982 308.63100000000003 28.65949999999998 316.03700000000003 35.67349999999998 L 372.83400000000006 20.688499999999983 L 405.46400000000006 76.24649999999998 L 357.7610000000001 119.70949999999999 C 359.3603300000001 125.80617 360.12000000000006 133.6915 360.0400000000001 143.3655 C 359.96067000000005 153.0395 359.2010000000001 160.94416999999999 357.7610000000001 167.0795 L 405.46400000000006 210.3045 L 372.83400000000006 265.4345 L 316.03700000000003 250.9565 C 308.63100000000003 257.80183 299.992 263.88017 290.12 269.1915 C 280.248 274.50350000000003 270.46667 278.71983 260.776 281.8405 L 249.87 346.71750000000003 z M 216.145 221.5075 C 238.92833000000002 221.5075 257.692 214.12682999999998 272.43600000000004 199.3655 C 287.17933000000005 184.60483 294.55100000000004 165.79683 294.55100000000004 142.9415 C 294.55100000000004 120.08682999999999 287.17733000000004 101.29217 272.43000000000006 86.55749999999999 C 257.6826700000001 71.8235 238.91467000000006 64.45649999999999 216.12600000000006 64.45649999999999 C 193.33667000000005 64.45649999999999 174.53533000000004 71.82816999999999 159.72200000000007 86.57149999999999 C 144.90733000000006 101.31549999999999 137.50000000000006 120.07916999999998 137.50000000000006 142.86249999999998 C 137.50000000000006 165.77049999999997 144.91167000000004 184.60483 159.73500000000007 199.3655 C 174.55833000000007 214.12682999999998 193.36167000000006 221.5075 216.14500000000007 221.5075 z M -78.803 -102.4925 C -54.80367 -102.4925 -34.751999999999995 -110.53550000000001 -18.647999999999996 -126.62150000000001 C -2.543999999999997 -142.70683000000002 5.508000000000003 -162.75283000000002 5.508000000000003 -186.7595 C 5.508000000000003 -210.81017 -2.532329999999998 -230.85717 -18.612999999999996 -246.9005 C -34.69367 -262.94317 -54.73366999999999 -270.9645 -78.73299999999999 -270.9645 C -102.73232999999999 -270.9645 -122.78399999999999 -262.93583 -138.88799999999998 -246.87849999999997 C -154.99199999999996 -230.82116999999997 -163.04399999999998 -210.80882999999997 -163.04399999999998 -186.84149999999997 C -163.04399999999998 -162.80882999999997 -155.00366999999997 -142.74249999999998 -138.92299999999997 -126.64249999999997 C -122.84232999999998 -110.54249999999996 -102.80232999999998 -102.49249999999998 -78.80299999999997 -102.49249999999998 z M -78.768 -186.7685 z M -69.087 231.7245 z" stroke-linecap="round" />
</g>
</svg>