<svg id="Layer_1" data-name="Layer 1" xmlns="http://www.w3.org/2000/svg" viewBox="0 0 719.42 101.74"><defs><style>.cls-1{fill:#f58020;}.cls-2{fill:#363636;}</style></defs><path class="cls-1" d="M79.9,84.54V55.4q0-9.15-7.55-9.15T64.79,55.4V84.54H50V55.4q0-9.15-7.43-9.15T35,55.4V84.54H20.14V53.68q0-9.54,6.63-14.44,5.84-4.38,15.76-4.38,10.08,0,14.84,5.17,4.11-5.18,15-5.17,9.93,0,15.76,4.38,6.61,4.89,6.62,14.44V84.54Z"/><path class="cls-1" d="M261.75,84.41V1.14H276.6V84.41Z"/><path class="cls-1" d="M242.83,84.41V79.5q-2,2.66-6.76,4.24A25,25,0,0,1,228,85.2q-10.6,0-17-7.29t-6.43-18c0-7.07,2.09-13,6.3-17.77A22.44,22.44,0,0,1,227.58,35c7.86,0,12.46,3,15.25,6.37V1.14h14.45V84.41Zm0-27.71c0-2.65-1.26-5.2-3.78-7.63s-5.11-3.65-7.76-3.65a10.49,10.49,0,0,0-9,4.65,16.9,16.9,0,0,0-2.92,10.07,16.72,16.72,0,0,0,2.92,10,10.41,10.41,0,0,0,9,4.77q3.45,0,7.49-3.25t4.05-6.69Z"/><path class="cls-1" d="M176.54,85.73q-11.28,0-18.63-7.16t-7.36-18.43q0-11.26,7.36-18.43t18.63-7.16q11.27,0,18.69,7.16t7.43,18.43q0,11.28-7.43,18.43T176.54,85.73Zm0-39.24a9.52,9.52,0,0,0-8.26,4.06,16.28,16.28,0,0,0-2.88,9.66,16.18,16.18,0,0,0,2.68,9.46,10.34,10.34,0,0,0,16.91,0,15.62,15.62,0,0,0,2.82-9.46,16.18,16.18,0,0,0-2.69-9.46A10,10,0,0,0,176.54,46.49Z"/><path class="cls-1" d="M122.84,85.73q-11.27,0-18.63-7.16T96.86,60.14q0-11.26,7.35-18.43t18.63-7.16q11.26,0,18.7,7.16T149,60.14q0,11.28-7.42,18.43T122.84,85.73Zm0-39.24a9.49,9.49,0,0,0-8.25,4.06,16.28,16.28,0,0,0-2.89,9.66,16.18,16.18,0,0,0,2.69,9.46,10.33,10.33,0,0,0,16.9,0,15.62,15.62,0,0,0,2.82-9.46,16.18,16.18,0,0,0-2.68-9.46A10,10,0,0,0,122.84,46.49Z"/><path class="cls-1" d="M294.19,64.65c.32,3.54,4.91,11.14,12.47,11.14,7.35,0,10.83-4.25,11-6l15.65-.13C331.6,74.91,324.66,86,306.39,86c-7.6,0-14.56-2.37-19.56-7.1S279.34,68,279.34,60.41q0-11.8,7.49-18.76t19.43-7q13,0,20.28,8.62,6.76,7.95,6.77,21.34Zm24.26-9.15a14.71,14.71,0,0,0-4-7.82,11.14,11.14,0,0,0-8-3.31,10.36,10.36,0,0,0-7.75,3.18,16.07,16.07,0,0,0-4.18,8Z"/><path class="cls-2" d="M49,32.62,63.71,21.86l-.19-.66C36.93,24.45,24.83,26.76,1.93,40l.21.6,1.82,0a92.88,92.88,0,0,0-.09,13.18c-2.54,7.35-.06,12.35,2.27,17.79a53.53,53.53,0,0,0-1.41-18,91.64,91.64,0,0,1,.1-12.95L20,40.81a69.47,69.47,0,0,0,.45,8.91C34,54.48,47.68,49.7,54.92,38A57.28,57.28,0,0,0,49,32.62Z"/><path class="cls-1" d="M358.06,76.35h15.48a2.12,2.12,0,0,0,2.11-2.11,2.47,2.47,0,0,0-.23-1l-7-15.65a2.81,2.81,0,0,0-2.59-1.72,3,3,0,0,0-2.57,1.74l-7,15.62a2.29,2.29,0,0,0-.25,1.05A2.07,2.07,0,0,0,358.06,76.35Z"/><path class="cls-2" d="M365.81,28.7l24.46,54.57a4.36,4.36,0,0,0,4,2.92,3.9,3.9,0,0,0,3.89-3.9,5.26,5.26,0,0,0-.49-2l-26.55-58a5.07,5.07,0,0,0-4.9-3.48h-.37c-2.33,0-3.91,1.1-5,3.47L334.28,80.36a4.63,4.63,0,0,0-.51,2.12,3.72,3.72,0,0,0,3.71,3.71,4,4,0,0,0,3.87-2.73Z"/><path class="cls-2" d="M439.05,72.88a3.15,3.15,0,0,0-2.29,1c-4.12,3.9-8.45,5.8-13.23,5.8-9.77,0-17.42-8.11-17.42-18.46v-.19c0-10.29,7.45-18.35,16.95-18.35,5.94,0,9.88,2.88,13,5.71a4,4,0,0,0,2.55.92,3.8,3.8,0,0,0,3.8-3.8,3.75,3.75,0,0,0-1.23-2.78A25.47,25.47,0,0,0,398,61.25v.19a25.29,25.29,0,0,0,25.12,25.4c7.24,0,13.11-2.5,18.47-7.86a3.59,3.59,0,0,0,1-2.49A3.7,3.7,0,0,0,439.05,72.88Z"/><path class="cls-2" d="M467.94,36A38.39,38.39,0,0,0,452,39.33a3.67,3.67,0,0,0-2.18,3.31,3.53,3.53,0,0,0,3.52,3.43,4,4,0,0,0,1.45-.31,29.86,29.86,0,0,1,12.39-2.68c9.06,0,14.05,4.56,14.05,12.84v1.23a51.31,51.31,0,0,0-14.52-1.94c-13.15,0-21,6-21,15.95v.19c0,10.11,9.25,15.4,18.38,15.4,8.72,0,14.07-4,17.14-7.69v3.42a3.68,3.68,0,0,0,3.81,3.71,3.77,3.77,0,0,0,3.8-3.9V55.83c0-6.18-1.7-11-5.06-14.36C480.19,37.86,474.85,36,467.94,36Zm-2.43,44.32c-5.69,0-11.81-2.91-11.81-9.29v-.19c0-6,5.15-9.66,13.77-9.66a50.35,50.35,0,0,1,13.87,2v4.42C481.34,74.88,474.53,80.36,465.51,80.36Z"/><path class="cls-2" d="M538.28,16.31a3.85,3.85,0,0,0-3.89,4V45.22c-4.7-6.34-10.81-9.56-18.17-9.56-11.36,0-23.43,8.94-23.43,25.5v.19c0,16.49,12.07,25.4,23.43,25.4,7.36,0,13.31-3.28,18.17-10V82.2a4,4,0,0,0,4,4,3.9,3.9,0,0,0,3.89-4V20.3A3.94,3.94,0,0,0,538.28,16.31Zm-20.75,63.3c-9.51,0-16.67-7.89-16.67-18.36v-.19c0-10.75,6.85-18.26,16.67-18.26,8.42,0,17.14,6.83,17.14,18.26v.19C534.67,70.08,528.11,79.61,517.53,79.61Z"/><path class="cls-2" d="M570,35.66c-13.19,0-23.53,11.2-23.53,25.5v.19c0,14.53,10.52,25.49,24.47,25.49a24.85,24.85,0,0,0,18.45-7.38,3.42,3.42,0,0,0,1.24-2.59,3.48,3.48,0,0,0-3.52-3.43,3.57,3.57,0,0,0-2.29.93,19.45,19.45,0,0,1-13.7,5.52c-8.91,0-15.55-6.28-16.63-15.68h34.58a3.71,3.71,0,0,0,3.71-3.71C592.79,48.16,585,35.66,570,35.66Zm-.19,6.77c6.56,0,13.92,4.15,15,15.77H554.5C555.57,48.89,561.83,42.43,569.82,42.43Z"/><path class="cls-2" d="M652.88,35.66c-7.18,0-12.74,3-17,9.29a16.74,16.74,0,0,0-15.56-9.29c-8,0-12.24,4.11-15.27,8.4V40.21a4,4,0,0,0-4-4,4,4,0,0,0-3.89,4v42a4,4,0,0,0,4,4,3.86,3.86,0,0,0,3.9-4V57.79c0-8.63,5.52-14.9,13.12-14.9S630.29,48.15,630.29,57V82.2a3.91,3.91,0,0,0,3.9,4,4,4,0,0,0,4-4V57.51c0-8.74,5.2-14.62,12.94-14.62s12.18,5.19,12.18,14.25V82.2a4,4,0,0,0,4,4,3.9,3.9,0,0,0,3.89-4V55.45C671.17,43.25,664.17,35.66,652.88,35.66Z"/><path class="cls-2" d="M714.88,36.22a4,4,0,0,0-3.78,2.93l-14.66,37.3L680,39.24c-.84-2-2.13-3-4-3a3.91,3.91,0,0,0-4,3.9,5.35,5.35,0,0,0,.5,2.11l20.12,42.68-.31.61c-2.72,6.12-5.27,8.4-9.41,8.4a14.28,14.28,0,0,1-5.12-.83,5.88,5.88,0,0,0-1.89-.39,3.47,3.47,0,0,0-3.42,3.43,3.62,3.62,0,0,0,2.47,3.41A23.13,23.13,0,0,0,683,101c7.57,0,12.35-4,16.49-13.86L718.38,42a6.35,6.35,0,0,0,.39-1.88A3.9,3.9,0,0,0,714.88,36.22Z"/></svg>