<?xml version="1.0" encoding="utf-8"?>
<svg preserveAspectRatio="xMidYMid slice" viewBox="0 0 500 280" width="900px" height="180px" xmlns="http://www.w3.org/2000/svg">
  <rect x="-1.527" y="-0.008" width="501.208" height="280.879" style="fill: rgb(216, 216, 216);"/>
  <g transform="matrix(1.95608, 0, 0, 1.95608, 274.833771, -131.820129)" style="">
    <path style="fill: rgb(188, 188, 188);" d="M 114.6 95.2 C 114.479 121.344 114.691 110.314 114.7 126 C 104.148 134.42 94.4 134.2 94.4 150.6 L 94.4 211.274 L 54.4 211.274 L 54.4 145.9 C 54.4 128.8 60.3 115.8 72.2 107 C 82.7 99.2 106.551 79.324 114.6 95.2 Z"/>
    <path style="fill: rgb(167, 166, 166);" d="M 115.646 125.734 C 115.163 66.514 115.269 66.481 115.269 66.481 C 64.267 69.102 67 73.5 5.4 109.2 L 6 110.8 L 10.9 110.8 C 10.4 115.7 9.7 127.9 10.7 146.3 C 3.9 166.1 10.5 179.5 16.8 194.2 C 17.8 179 17.7 162.3 13 145.7 C 12 127.5 12.8 115.5 13.3 110.8 L 54.2 111.2 C 54.2 111.2 53.9 123.5 55.4 135.2 C 91.9 148 115.691 125.911 115.646 125.734 Z"/>
    <path style="fill: rgb(216, 216, 216); stroke: rgb(0, 0, 0);" d="M 125.811 141.543"/>
    <path style="fill: rgb(216, 216, 216); stroke: rgb(0, 0, 0);" d="M 193.933 167.442"/>
  </g>
</svg>