<svg
  xmlns="http://www.w3.org/2000/svg"
  viewBox="0 0 100 100"
  width="100"
  height="100"
  preserveAspectRatio="xMidYMid meet"
  style="
    width: 100%;
    height: 100%;
    transform: translate3d(0px, 0px, 0px);
    content-visibility: visible;
  "
>
  <defs>
    <clipPath id="__lottie_element_2"><rect width="100" height="100" x="0" y="0"></rect></clipPath>
  </defs>
  <g clip-path="url(#__lottie_element_2)">
    <g
      transform="matrix(0.8999999761581421,0,0,0.8999999761581421,5,5.250202178955078)"
      opacity="1"
      style="display: block"
    >
      <g opacity="1" transform="matrix(1,0,0,1,50,36.67300033569336)">
        <path
          stroke-linecap="round"
          stroke-linejoin="miter"
          fill-opacity="0"
          stroke-miterlimit="10"
          stroke="rgb(143,143,143)"
          stroke-opacity="1"
          stroke-width="10"
          d=" M-16.97100067138672,8.32699966430664 C-16.97100067138672,8.32699966430664 -0.7070000171661377,-7.935999870300293 -0.7070000171661377,-7.935999870300293 C-0.3160000145435333,-8.32699966430664 0.3160000145435333,-8.32699966430664 0.7070000171661377,-7.935999870300293 C0.7070000171661377,-7.935999870300293 16.97100067138672,8.32699966430664 16.97100067138672,8.32699966430664"
        ></path>
      </g>
      <g opacity="1" transform="matrix(1,0,0,1,0,0)">
        <path
          stroke-linecap="round"
          stroke-linejoin="miter"
          fill-opacity="0"
          stroke-miterlimit="10"
          stroke="rgb(143,143,143)"
          stroke-opacity="1"
          stroke-width="10"
          d=" M50,31 C50,31 50,71 50,71"
        ></path>
      </g>
    </g>
    <g
      style="display: block"
      transform="matrix(1,0,0,1,54.3120002746582,55.8120002746582)"
      opacity="0.9324471186440688"
    >
      <g opacity="1" transform="matrix(1,0,0,1,-4.311999797821045,-5.811999797821045)">
        <path
          stroke-linecap="round"
          stroke-linejoin="miter"
          fill-opacity="0"
          stroke-miterlimit="4"
          stroke="rgb(143,143,143)"
          stroke-opacity="1"
          stroke-width="10"
          d=" M-43.66400146484375,10.918000221252441 C-44.5369987487793,7.421999931335449 -45,3.765000104904175 -45,0 C-45,-24.835500717163086 -24.835500717163086,-45 0,-45 C0,-45 0,-45 0,-45 C24.835500717163086,-45 45,-24.835500717163086 45,0 C45,3.4210000038146973 44.617000579833984,6.752999782562256 43.893001556396484,9.956000328063965"
        ></path>
      </g>
    </g>
  </g>
</svg>
